<?xml version="1.0" encoding="UTF-8" standalone="no"?>
<!-- Created with Inkscape (http://www.inkscape.org/) -->

<svg
   width="72.726204mm"
   height="76.386269mm"
   viewBox="0 0 72.726204 76.386269"
   version="1.1"
   id="svg1"
   xmlns="http://www.w3.org/2000/svg"
   xmlns:svg="http://www.w3.org/2000/svg">
  <defs
     id="defs1">
    <clipPath
       clipPathUnits="userSpaceOnUse"
       id="clipPath996">
      <path
         d="m 2906.49,603.609 h 2133.44 v 3792.78 H 2906.49 Z"
         transform="translate(0,2.5e-5)"
         id="path996" />
    </clipPath>
    <clipPath
       clipPathUnits="userSpaceOnUse"
       id="clipPath998">
      <path
         d="m 2906.49,603.609 h 2133.44 v 3792.78 H 2906.49 Z"
         transform="translate(0,2.5e-5)"
         id="path998" />
    </clipPath>
    <clipPath
       clipPathUnits="userSpaceOnUse"
       id="clipPath1000">
      <path
         d="m 2906.49,603.609 h 2133.44 v 3792.78 H 2906.49 Z"
         transform="translate(0,2.5e-5)"
         id="path1000" />
    </clipPath>
    <clipPath
       clipPathUnits="userSpaceOnUse"
       id="clipPath1002">
      <path
         d="m 2906.49,603.609 h 2133.44 v 3792.78 H 2906.49 Z"
         transform="translate(0,2.5e-5)"
         id="path1002" />
    </clipPath>
    <clipPath
       clipPathUnits="userSpaceOnUse"
       id="clipPath1004">
      <path
         d="m 2906.49,603.609 h 2133.44 v 3792.78 H 2906.49 Z"
         transform="translate(0,2.5e-5)"
         id="path1004" />
    </clipPath>
    <clipPath
       clipPathUnits="userSpaceOnUse"
       id="clipPath1006">
      <path
         d="m 2906.49,603.609 h 2133.44 v 3792.78 H 2906.49 Z"
         transform="translate(0,2.5e-5)"
         id="path1006" />
    </clipPath>
    <clipPath
       clipPathUnits="userSpaceOnUse"
       id="clipPath1008">
      <path
         d="m 2906.49,603.609 h 2133.44 v 3792.78 H 2906.49 Z"
         transform="translate(0,2.5e-5)"
         id="path1008" />
    </clipPath>
    <clipPath
       clipPathUnits="userSpaceOnUse"
       id="clipPath1010">
      <path
         d="m 2906.49,603.609 h 2133.44 v 3792.78 H 2906.49 Z"
         transform="translate(0,2.5e-5)"
         id="path1010" />
    </clipPath>
    <clipPath
       clipPathUnits="userSpaceOnUse"
       id="clipPath1012">
      <path
         d="m 2906.49,603.609 h 2133.44 v 3792.78 H 2906.49 Z"
         transform="translate(0,2.5e-5)"
         id="path1012" />
    </clipPath>
    <clipPath
       clipPathUnits="userSpaceOnUse"
       id="clipPath1014">
      <path
         d="m 2906.49,603.609 h 2133.44 v 3792.78 H 2906.49 Z"
         transform="translate(0,2.5e-5)"
         id="path1014" />
    </clipPath>
    <clipPath
       clipPathUnits="userSpaceOnUse"
       id="clipPath1016">
      <path
         d="m 2906.49,603.609 h 2133.44 v 3792.78 H 2906.49 Z"
         transform="translate(0,2.5e-5)"
         id="path1016" />
    </clipPath>
    <clipPath
       clipPathUnits="userSpaceOnUse"
       id="clipPath1018">
      <path
         d="m 2906.49,603.609 h 2133.44 v 3792.78 H 2906.49 Z"
         transform="translate(0,2.5e-5)"
         id="path1018" />
    </clipPath>
    <clipPath
       clipPathUnits="userSpaceOnUse"
       id="clipPath1020">
      <path
         d="m 2906.49,603.609 h 2133.44 v 3792.78 H 2906.49 Z"
         transform="translate(0,2.5e-5)"
         id="path1020" />
    </clipPath>
    <clipPath
       clipPathUnits="userSpaceOnUse"
       id="clipPath1022">
      <path
         d="m 2906.49,603.609 h 2133.44 v 3792.78 H 2906.49 Z"
         transform="translate(0,2.5e-5)"
         id="path1022" />
    </clipPath>
    <clipPath
       clipPathUnits="userSpaceOnUse"
       id="clipPath1024">
      <path
         d="m 2906.49,603.609 h 2133.44 v 3792.78 H 2906.49 Z"
         transform="translate(0,2.5e-5)"
         id="path1024" />
    </clipPath>
    <clipPath
       clipPathUnits="userSpaceOnUse"
       id="clipPath1026">
      <path
         d="m 2906.49,603.609 h 2133.44 v 3792.78 H 2906.49 Z"
         transform="translate(0,2.5e-5)"
         id="path1026" />
    </clipPath>
    <clipPath
       clipPathUnits="userSpaceOnUse"
       id="clipPath1028">
      <path
         d="m 2906.49,603.609 h 2133.44 v 3792.78 H 2906.49 Z"
         transform="translate(0,2.5e-5)"
         id="path1028" />
    </clipPath>
    <clipPath
       clipPathUnits="userSpaceOnUse"
       id="clipPath1030">
      <path
         d="m 2906.49,603.609 h 2133.44 v 3792.78 H 2906.49 Z"
         transform="translate(0,2.5e-5)"
         id="path1030" />
    </clipPath>
    <clipPath
       clipPathUnits="userSpaceOnUse"
       id="clipPath1032">
      <path
         d="m 2906.49,603.609 h 2133.44 v 3792.78 H 2906.49 Z"
         transform="translate(0,2.5e-5)"
         id="path1032" />
    </clipPath>
    <clipPath
       clipPathUnits="userSpaceOnUse"
       id="clipPath1034">
      <path
         d="m 2906.49,603.609 h 2133.44 v 3792.78 H 2906.49 Z"
         transform="translate(0,2.5e-5)"
         id="path1034" />
    </clipPath>
    <clipPath
       clipPathUnits="userSpaceOnUse"
       id="clipPath1036">
      <path
         d="m 2906.49,603.609 h 2133.44 v 3792.78 H 2906.49 Z"
         transform="translate(0,2.5e-5)"
         id="path1036" />
    </clipPath>
    <clipPath
       clipPathUnits="userSpaceOnUse"
       id="clipPath1038">
      <path
         d="m 2906.49,603.609 h 2133.44 v 3792.78 H 2906.49 Z"
         transform="translate(0,2.5e-5)"
         id="path1038" />
    </clipPath>
    <clipPath
       clipPathUnits="userSpaceOnUse"
       id="clipPath1040">
      <path
         d="m 2906.49,603.609 h 2133.44 v 3792.78 H 2906.49 Z"
         transform="translate(0,2.5e-5)"
         id="path1040" />
    </clipPath>
    <clipPath
       clipPathUnits="userSpaceOnUse"
       id="clipPath1042">
      <path
         d="m 2906.49,603.609 h 2133.44 v 3792.78 H 2906.49 Z"
         transform="translate(0,2.5e-5)"
         id="path1042" />
    </clipPath>
    <clipPath
       clipPathUnits="userSpaceOnUse"
       id="clipPath1044">
      <path
         d="m 2906.49,603.609 h 2133.44 v 3792.78 H 2906.49 Z"
         transform="translate(0,2.5e-5)"
         id="path1044" />
    </clipPath>
    <clipPath
       clipPathUnits="userSpaceOnUse"
       id="clipPath1046">
      <path
         d="m 2906.49,603.609 h 2133.44 v 3792.78 H 2906.49 Z"
         transform="translate(0,2.5e-5)"
         id="path1046" />
    </clipPath>
    <clipPath
       clipPathUnits="userSpaceOnUse"
       id="clipPath1048">
      <path
         d="m 2906.49,603.609 h 2133.44 v 3792.78 H 2906.49 Z"
         transform="translate(0,2.5e-5)"
         id="path1048" />
    </clipPath>
    <clipPath
       clipPathUnits="userSpaceOnUse"
       id="clipPath1050">
      <path
         d="m 2906.49,603.609 h 2133.44 v 3792.78 H 2906.49 Z"
         transform="translate(0,2.5e-5)"
         id="path1050" />
    </clipPath>
    <clipPath
       clipPathUnits="userSpaceOnUse"
       id="clipPath1052">
      <path
         d="m 2906.49,603.609 h 2133.44 v 3792.78 H 2906.49 Z"
         transform="translate(0,2.5e-5)"
         id="path1052" />
    </clipPath>
    <clipPath
       clipPathUnits="userSpaceOnUse"
       id="clipPath1054">
      <path
         d="m 2906.49,603.609 h 2133.44 v 3792.78 H 2906.49 Z"
         transform="translate(0,2.5e-5)"
         id="path1054" />
    </clipPath>
    <clipPath
       clipPathUnits="userSpaceOnUse"
       id="clipPath1056">
      <path
         d="m 2906.49,603.609 h 2133.44 v 3792.78 H 2906.49 Z"
         transform="translate(0,2.5e-5)"
         id="path1056" />
    </clipPath>
    <clipPath
       clipPathUnits="userSpaceOnUse"
       id="clipPath1058">
      <path
         d="m 2906.49,603.609 h 2133.44 v 3792.78 H 2906.49 Z"
         transform="translate(0,2.5e-5)"
         id="path1058" />
    </clipPath>
    <clipPath
       clipPathUnits="userSpaceOnUse"
       id="clipPath1060">
      <path
         d="m 2906.49,603.609 h 2133.44 v 3792.78 H 2906.49 Z"
         transform="translate(0,2.5e-5)"
         id="path1060" />
    </clipPath>
    <clipPath
       clipPathUnits="userSpaceOnUse"
       id="clipPath1062">
      <path
         d="m 2906.49,603.609 h 2133.44 v 3792.78 H 2906.49 Z"
         transform="translate(0,2.5e-5)"
         id="path1062" />
    </clipPath>
    <clipPath
       clipPathUnits="userSpaceOnUse"
       id="clipPath1064">
      <path
         d="m 2906.49,603.609 h 2133.44 v 3792.78 H 2906.49 Z"
         transform="translate(0,2.5e-5)"
         id="path1064" />
    </clipPath>
    <clipPath
       clipPathUnits="userSpaceOnUse"
       id="clipPath1066">
      <path
         d="m 2906.49,603.609 h 2133.44 v 3792.78 H 2906.49 Z"
         transform="translate(0,2.5e-5)"
         id="path1066" />
    </clipPath>
    <clipPath
       clipPathUnits="userSpaceOnUse"
       id="clipPath1068">
      <path
         d="m 2906.49,603.609 h 2133.44 v 3792.78 H 2906.49 Z"
         transform="translate(0,2.5e-5)"
         id="path1068" />
    </clipPath>
    <clipPath
       clipPathUnits="userSpaceOnUse"
       id="clipPath1070">
      <path
         d="m 2906.49,603.609 h 2133.44 v 3792.78 H 2906.49 Z"
         transform="translate(0,2.5e-5)"
         id="path1070" />
    </clipPath>
    <clipPath
       clipPathUnits="userSpaceOnUse"
       id="clipPath1072">
      <path
         d="m 2906.49,603.609 h 2133.44 v 3792.78 H 2906.49 Z"
         transform="translate(0,2.5e-5)"
         id="path1072" />
    </clipPath>
    <clipPath
       clipPathUnits="userSpaceOnUse"
       id="clipPath1074">
      <path
         d="m 2906.49,603.609 h 2133.44 v 3792.78 H 2906.49 Z"
         transform="translate(0,2.5e-5)"
         id="path1074" />
    </clipPath>
    <clipPath
       clipPathUnits="userSpaceOnUse"
       id="clipPath1076">
      <path
         d="m 2906.49,603.609 h 2133.44 v 3792.78 H 2906.49 Z"
         transform="translate(0,2.5e-5)"
         id="path1076" />
    </clipPath>
    <clipPath
       clipPathUnits="userSpaceOnUse"
       id="clipPath1078">
      <path
         d="m 2906.49,603.609 h 2133.44 v 3792.78 H 2906.49 Z"
         transform="translate(0,2.5e-5)"
         id="path1078" />
    </clipPath>
    <clipPath
       clipPathUnits="userSpaceOnUse"
       id="clipPath1080">
      <path
         d="m 2906.49,603.609 h 2133.44 v 3792.78 H 2906.49 Z"
         transform="translate(0,2.5e-5)"
         id="path1080" />
    </clipPath>
    <clipPath
       clipPathUnits="userSpaceOnUse"
       id="clipPath1082">
      <path
         d="m 2906.49,603.609 h 2133.44 v 3792.78 H 2906.49 Z"
         transform="translate(0,2.5e-5)"
         id="path1082" />
    </clipPath>
    <clipPath
       clipPathUnits="userSpaceOnUse"
       id="clipPath1084">
      <path
         d="m 2906.49,603.609 h 2133.44 v 3792.78 H 2906.49 Z"
         transform="translate(0,2.5e-5)"
         id="path1084" />
    </clipPath>
    <clipPath
       clipPathUnits="userSpaceOnUse"
       id="clipPath1086">
      <path
         d="m 2906.49,603.609 h 2133.44 v 3792.78 H 2906.49 Z"
         transform="translate(0,2.5e-5)"
         id="path1086" />
    </clipPath>
    <clipPath
       clipPathUnits="userSpaceOnUse"
       id="clipPath1088">
      <path
         d="m 2906.49,603.609 h 2133.44 v 3792.78 H 2906.49 Z"
         transform="translate(0,2.5e-5)"
         id="path1088" />
    </clipPath>
    <clipPath
       clipPathUnits="userSpaceOnUse"
       id="clipPath1090">
      <path
         d="m 2906.49,603.609 h 2133.44 v 3792.78 H 2906.49 Z"
         transform="translate(0,2.5e-5)"
         id="path1090" />
    </clipPath>
    <clipPath
       clipPathUnits="userSpaceOnUse"
       id="clipPath1092">
      <path
         d="m 2906.49,603.609 h 2133.44 v 3792.78 H 2906.49 Z"
         transform="translate(0,2.5e-5)"
         id="path1092" />
    </clipPath>
    <clipPath
       clipPathUnits="userSpaceOnUse"
       id="clipPath1094">
      <path
         d="m 2906.49,603.609 h 2133.44 v 3792.78 H 2906.49 Z"
         transform="translate(0,2.5e-5)"
         id="path1094" />
    </clipPath>
    <clipPath
       clipPathUnits="userSpaceOnUse"
       id="clipPath1096">
      <path
         d="m 2906.49,603.609 h 2133.44 v 3792.78 H 2906.49 Z"
         transform="translate(0,2.5e-5)"
         id="path1096" />
    </clipPath>
    <clipPath
       clipPathUnits="userSpaceOnUse"
       id="clipPath1098">
      <path
         d="m 2906.49,603.609 h 2133.44 v 3792.78 H 2906.49 Z"
         transform="translate(0,2.5e-5)"
         id="path1098" />
    </clipPath>
    <clipPath
       clipPathUnits="userSpaceOnUse"
       id="clipPath1100">
      <path
         d="m 2906.49,603.609 h 2133.44 v 3792.78 H 2906.49 Z"
         transform="translate(0,2.5e-5)"
         id="path1100" />
    </clipPath>
    <clipPath
       clipPathUnits="userSpaceOnUse"
       id="clipPath1102">
      <path
         d="m 2906.49,603.609 h 2133.44 v 3792.78 H 2906.49 Z"
         transform="translate(0,2.5e-5)"
         id="path1102" />
    </clipPath>
    <clipPath
       clipPathUnits="userSpaceOnUse"
       id="clipPath1104">
      <path
         d="m 2906.49,603.609 h 2133.44 v 3792.78 H 2906.49 Z"
         transform="translate(0,2.5e-5)"
         id="path1104" />
    </clipPath>
    <clipPath
       clipPathUnits="userSpaceOnUse"
       id="clipPath1106">
      <path
         d="m 2906.49,603.609 h 2133.44 v 3792.78 H 2906.49 Z"
         transform="translate(0,2.5e-5)"
         id="path1106" />
    </clipPath>
    <clipPath
       clipPathUnits="userSpaceOnUse"
       id="clipPath1108">
      <path
         d="m 2906.49,603.609 h 2133.44 v 3792.78 H 2906.49 Z"
         transform="translate(0,2.5e-5)"
         id="path1108" />
    </clipPath>
    <clipPath
       clipPathUnits="userSpaceOnUse"
       id="clipPath1110">
      <path
         d="m 2906.49,603.609 h 2133.44 v 3792.78 H 2906.49 Z"
         transform="translate(0,2.5e-5)"
         id="path1110" />
    </clipPath>
    <clipPath
       clipPathUnits="userSpaceOnUse"
       id="clipPath1112">
      <path
         d="m 2906.49,603.609 h 2133.44 v 3792.78 H 2906.49 Z"
         transform="translate(0,2.5e-5)"
         id="path1112" />
    </clipPath>
    <clipPath
       clipPathUnits="userSpaceOnUse"
       id="clipPath1114">
      <path
         d="m 2906.49,603.609 h 2133.44 v 3792.78 H 2906.49 Z"
         transform="translate(0,2.5e-5)"
         id="path1114" />
    </clipPath>
    <clipPath
       clipPathUnits="userSpaceOnUse"
       id="clipPath1116">
      <path
         d="m 2906.49,603.609 h 2133.44 v 3792.78 H 2906.49 Z"
         transform="translate(0,2.5e-5)"
         id="path1116" />
    </clipPath>
    <clipPath
       clipPathUnits="userSpaceOnUse"
       id="clipPath1118">
      <path
         d="m 2906.49,603.609 h 2133.44 v 3792.78 H 2906.49 Z"
         transform="translate(0,2.5e-5)"
         id="path1118" />
    </clipPath>
    <clipPath
       clipPathUnits="userSpaceOnUse"
       id="clipPath1120">
      <path
         d="m 2906.49,603.609 h 2133.44 v 3792.78 H 2906.49 Z"
         transform="translate(0,2.5e-5)"
         id="path1120" />
    </clipPath>
  </defs>
  <g
     id="layer1"
     transform="translate(-62.740065,-57.676055)">
    <path
       id="path995"
       d="m 3075.3,4186.88 c 6.08,-34.58 9.43,-69.36 12.12,-104.2 2.42,-34.84 4.15,-69.75 3.13,-104.85 -6.1,34.59 -9.45,69.37 -12.12,104.2 -2.4,34.85 -4.13,69.76 -3.13,104.85"
       style="fill:#fab257;fill-opacity:1;fill-rule:nonzero;stroke:none"
       transform="matrix(0.03527778,0,0,-0.03527778,-42.331275,207.30182)"
       clip-path="url(#clipPath996)" />
    <path
       id="path997"
       d="m 3187.45,4089.98 c -34.59,-6.07 -69.37,-9.43 -104.2,-12.12 -34.85,-2.41 -69.75,-4.15 -104.85,-3.13 34.58,6.11 69.36,9.46 104.2,12.13 34.85,2.39 69.75,4.12 104.85,3.12"
       style="fill:#fab257;fill-opacity:1;fill-rule:nonzero;stroke:none"
       transform="matrix(0.03527778,0,0,-0.03527778,-42.331275,207.30182)"
       clip-path="url(#clipPath998)" />
    <path
       id="path999"
       d="m 3130,4136.84 c -13.01,-20.49 -28.09,-39.17 -43.66,-57.43 -15.8,-18.07 -32.09,-35.71 -50.49,-51.53 12.99,20.5 28.07,39.18 43.66,57.42 15.81,18.07 32.1,35.7 50.49,51.54"
       style="fill:#fab257;fill-opacity:1;fill-rule:nonzero;stroke:none"
       transform="matrix(0.03527778,0,0,-0.03527778,-42.331275,207.30182)"
       clip-path="url(#clipPath1000)" />
    <path
       id="path1001"
       d="m 3137.41,4035.29 c -20.49,13 -39.17,28.09 -57.43,43.66 -18.08,15.79 -35.71,32.09 -51.53,50.48 20.49,-12.98 39.17,-28.07 57.42,-43.66 18.06,-15.81 35.7,-32.1 51.54,-50.48"
       style="fill:#fab257;fill-opacity:1;fill-rule:nonzero;stroke:none"
       transform="matrix(0.03527778,0,0,-0.03527778,-42.331275,207.30182)"
       clip-path="url(#clipPath1002)" />
    <path
       id="path1003"
       d="m 3435.79,3046 c 6.08,-34.59 9.44,-69.37 12.13,-104.2 2.41,-34.85 4.14,-69.75 3.12,-104.85 -6.1,34.58 -9.45,69.36 -12.12,104.2 -2.39,34.84 -4.12,69.75 -3.13,104.85"
       style="fill:#fab257;fill-opacity:1;fill-rule:nonzero;stroke:none"
       transform="matrix(0.03527778,0,0,-0.03527778,-42.331275,207.30182)"
       clip-path="url(#clipPath1004)" />
    <path
       id="path1005"
       d="m 3547.95,2949.1 c -34.59,-6.08 -69.37,-9.44 -104.2,-12.12 -34.86,-2.42 -69.75,-4.15 -104.86,-3.13 34.58,6.1 69.37,9.45 104.2,12.12 34.85,2.39 69.75,4.12 104.86,3.13"
       style="fill:#fab257;fill-opacity:1;fill-rule:nonzero;stroke:none"
       transform="matrix(0.03527778,0,0,-0.03527778,-42.331275,207.30182)"
       clip-path="url(#clipPath1006)" />
    <path
       id="path1007"
       d="m 3490.49,2995.95 c -13,-20.48 -28.08,-39.16 -43.66,-57.43 -15.79,-18.07 -32.09,-35.7 -50.48,-51.53 12.98,20.5 28.07,39.19 43.66,57.43 15.8,18.06 32.1,35.7 50.48,51.53"
       style="fill:#fab257;fill-opacity:1;fill-rule:nonzero;stroke:none"
       transform="matrix(0.03527778,0,0,-0.03527778,-42.331275,207.30182)"
       clip-path="url(#clipPath1008)" />
    <path
       id="path1009"
       d="m 3497.9,2894.4 c -20.49,13 -39.17,28.08 -57.43,43.66 -18.07,15.79 -35.71,32.08 -51.53,50.48 20.5,-12.98 39.18,-28.07 57.43,-43.66 18.06,-15.8 35.69,-32.1 51.53,-50.48"
       style="fill:#fab257;fill-opacity:1;fill-rule:nonzero;stroke:none"
       transform="matrix(0.03527778,0,0,-0.03527778,-42.331275,207.30182)"
       clip-path="url(#clipPath1010)" />
    <path
       id="path1011"
       d="m 4851.99,4241.36 c 6.08,-34.58 9.44,-69.36 12.12,-104.19 2.42,-34.86 4.15,-69.75 3.13,-104.86 -6.09,34.58 -9.45,69.37 -12.12,104.2 -2.39,34.85 -4.12,69.75 -3.13,104.85"
       style="fill:#fab257;fill-opacity:1;fill-rule:nonzero;stroke:none"
       transform="matrix(0.03527778,0,0,-0.03527778,-42.331275,207.30182)"
       clip-path="url(#clipPath1012)" />
    <path
       id="path1013"
       d="m 4964.14,4144.46 c -34.58,-6.08 -69.36,-9.43 -104.19,-12.12 -34.85,-2.41 -69.76,-4.14 -104.85,-3.13 34.58,6.1 69.36,9.46 104.19,12.12 34.85,2.4 69.76,4.13 104.85,3.13"
       style="fill:#fab257;fill-opacity:1;fill-rule:nonzero;stroke:none"
       transform="matrix(0.03527778,0,0,-0.03527778,-42.331275,207.30182)"
       clip-path="url(#clipPath1014)" />
    <path
       id="path1015"
       d="m 4906.69,4191.32 c -13,-20.49 -28.08,-39.17 -43.66,-57.43 -15.79,-18.07 -32.08,-35.71 -50.48,-51.53 12.98,20.5 28.07,39.18 43.66,57.43 15.8,18.05 32.1,35.69 50.48,51.53"
       style="fill:#fab257;fill-opacity:1;fill-rule:nonzero;stroke:none"
       transform="matrix(0.03527778,0,0,-0.03527778,-42.331275,207.30182)"
       clip-path="url(#clipPath1016)" />
    <path
       id="path1017"
       d="m 4914.1,4089.77 c -20.49,13 -39.17,28.08 -57.43,43.66 -18.07,15.79 -35.71,32.08 -51.53,50.48 20.5,-12.98 39.18,-28.07 57.43,-43.66 18.06,-15.81 35.69,-32.1 51.53,-50.48"
       style="fill:#fab257;fill-opacity:1;fill-rule:nonzero;stroke:none"
       transform="matrix(0.03527778,0,0,-0.03527778,-42.331275,207.30182)"
       clip-path="url(#clipPath1018)" />
    <path
       id="path1019"
       d="m 4705.87,3162.38 c -1.14,-13.63 -3.97,-26.87 -6.66,-40.15 -3.2,-13.16 -6.26,-26.36 -11.05,-39.17 1.12,13.63 3.96,26.87 6.66,40.15 3.21,13.16 6.28,26.35 11.05,39.17"
       style="fill:#fab257;fill-opacity:1;fill-rule:nonzero;stroke:none"
       transform="matrix(0.03527778,0,0,-0.03527778,-42.331275,207.30182)"
       clip-path="url(#clipPath1020)" />
    <path
       id="path1021"
       d="m 4736.68,3113.87 c -13.63,1.13 -26.88,3.96 -40.15,6.65 -13.17,3.21 -26.36,6.27 -39.17,11.05 13.62,-1.12 26.87,-3.95 40.15,-6.65 13.16,-3.21 26.35,-6.28 39.17,-11.05"
       style="fill:#fab257;fill-opacity:1;fill-rule:nonzero;stroke:none"
       transform="matrix(0.03527778,0,0,-0.03527778,-42.331275,207.30182)"
       clip-path="url(#clipPath1022)" />
    <path
       id="path1023"
       d="m 4720.58,3137.68 c -6.86,-6.56 -14.64,-11.65 -22.35,-16.86 -8,-4.77 -15.92,-9.66 -24.78,-13.07 6.85,6.58 14.64,11.66 22.36,16.87 8,4.76 15.92,9.65 24.77,13.06"
       style="fill:#fab257;fill-opacity:1;fill-rule:nonzero;stroke:none"
       transform="matrix(0.03527778,0,0,-0.03527778,-42.331275,207.30182)"
       clip-path="url(#clipPath1024)" />
    <path
       id="path1025"
       d="m 4711.98,3099.15 c -6.56,6.86 -11.65,14.65 -16.86,22.36 -4.78,8 -9.67,15.92 -13.07,24.78 6.58,-6.85 11.66,-14.65 16.87,-22.37 4.76,-7.99 9.65,-15.91 13.06,-24.77"
       style="fill:#fab257;fill-opacity:1;fill-rule:nonzero;stroke:none"
       transform="matrix(0.03527778,0,0,-0.03527778,-42.331275,207.30182)"
       clip-path="url(#clipPath1026)" />
    <path
       id="path1027"
       d="m 4744.03,2516.71 c 20.16,28.75 42.38,55.72 65.11,82.24 22.93,26.36 46.39,52.26 71.93,76.36 -20.14,-28.77 -42.37,-55.73 -65.11,-82.25 -22.95,-26.33 -46.41,-52.24 -71.93,-76.35"
       style="fill:#fab257;fill-opacity:1;fill-rule:nonzero;stroke:none"
       transform="matrix(0.03527778,0,0,-0.03527778,-42.331275,207.30182)"
       clip-path="url(#clipPath1028)" />
    <path
       id="path1029"
       d="m 4733.24,2664.53 c 28.76,-20.16 55.73,-42.38 82.26,-65.11 26.34,-22.94 52.25,-46.38 76.35,-71.93 -28.77,20.15 -55.73,42.36 -82.25,65.11 -26.34,22.95 -52.24,46.4 -76.36,71.93"
       style="fill:#fab257;fill-opacity:1;fill-rule:nonzero;stroke:none"
       transform="matrix(0.03527778,0,0,-0.03527778,-42.331275,207.30182)"
       clip-path="url(#clipPath1030)" />
    <path
       id="path1031"
       d="m 4740.74,2590.77 c 23.68,5.29 47.55,7.84 71.48,9.74 23.94,1.61 47.94,2.55 72.13,0.74 -23.67,-5.31 -47.55,-7.86 -71.48,-9.74 -23.94,-1.59 -47.94,-2.54 -72.13,-0.74"
       style="fill:#fab257;fill-opacity:1;fill-rule:nonzero;stroke:none"
       transform="matrix(0.03527778,0,0,-0.03527778,-42.331275,207.30182)"
       clip-path="url(#clipPath1032)" />
    <path
       id="path1033"
       d="m 4807.31,2667.82 c 5.3,-23.68 7.83,-47.56 9.73,-71.48 1.62,-23.95 2.57,-47.94 0.75,-72.13 -5.32,23.67 -7.86,47.55 -9.74,71.47 -1.59,23.95 -2.54,47.94 -0.74,72.14"
       style="fill:#fab257;fill-opacity:1;fill-rule:nonzero;stroke:none"
       transform="matrix(0.03527778,0,0,-0.03527778,-42.331275,207.30182)"
       clip-path="url(#clipPath1034)" />
    <path
       id="path1035"
       d="m 4601.03,3721.36 c 29.21,2.2 58.29,1.67 87.34,0.47 29.04,-1.48 58.05,-3.63 86.93,-8.54 -29.21,-2.22 -58.3,-1.69 -87.35,-0.47 -29.04,1.49 -58.04,3.65 -86.92,8.54"
       style="fill:#fab257;fill-opacity:1;fill-rule:nonzero;stroke:none"
       transform="matrix(0.03527778,0,0,-0.03527778,-42.331275,207.30182)"
       clip-path="url(#clipPath1036)" />
    <path
       id="path1037"
       d="m 4692.2,3804.46 c 2.19,-29.21 1.67,-58.29 0.46,-87.34 -1.47,-29.04 -3.62,-58.05 -8.53,-86.93 -2.22,29.21 -1.69,58.29 -0.47,87.34 1.49,29.04 3.65,58.05 8.54,86.93"
       style="fill:#fab257;fill-opacity:1;fill-rule:nonzero;stroke:none"
       transform="matrix(0.03527778,0,0,-0.03527778,-42.331275,207.30182)"
       clip-path="url(#clipPath1038)" />
    <path
       id="path1039"
       d="m 4647.8,3761.61 c 16.08,-12.36 30.13,-26.59 43.69,-41.25 13.36,-14.85 26.23,-30.15 37.04,-47.32 -16.1,12.35 -30.15,26.58 -43.7,41.25 -13.34,14.86 -26.21,30.17 -37.03,47.32"
       style="fill:#fab257;fill-opacity:1;fill-rule:nonzero;stroke:none"
       transform="matrix(0.03527778,0,0,-0.03527778,-42.331275,207.30182)"
       clip-path="url(#clipPath1040)" />
    <path
       id="path1041"
       d="m 4732.45,3757.69 c -12.37,-16.08 -26.59,-30.13 -41.25,-43.7 -14.85,-13.36 -30.15,-26.22 -47.33,-37.03 12.36,16.1 26.58,30.14 41.25,43.7 14.87,13.34 30.17,26.21 47.33,37.03"
       style="fill:#fab257;fill-opacity:1;fill-rule:nonzero;stroke:none"
       transform="matrix(0.03527778,0,0,-0.03527778,-42.331275,207.30182)"
       clip-path="url(#clipPath1042)" />
    <path
       id="path1043"
       d="m 4804.38,2141.85 c 21.04,0.89 42,0.04 62.97,-0.66 20.94,-1.23 41.89,-2.31 62.76,-5.17 -21.04,-0.89 -42.01,-0.04 -62.97,0.67 -20.94,1.24 -41.89,2.33 -62.76,5.16"
       style="fill:#fab257;fill-opacity:1;fill-rule:nonzero;stroke:none"
       transform="matrix(0.03527778,0,0,-0.03527778,-42.331275,207.30182)"
       clip-path="url(#clipPath1044)" />
    <path
       id="path1045"
       d="m 4870.15,2201.81 c 0.9,-21.05 0.05,-42.01 -0.66,-62.97 -1.23,-20.95 -2.31,-41.9 -5.16,-62.76 -0.9,21.04 -0.05,41.99 0.66,62.96 1.24,20.95 2.33,41.9 5.16,62.77"
       style="fill:#fab257;fill-opacity:1;fill-rule:nonzero;stroke:none"
       transform="matrix(0.03527778,0,0,-0.03527778,-42.331275,207.30182)"
       clip-path="url(#clipPath1046)" />
    <path
       id="path1047"
       d="m 4838.12,2170.89 c 11.09,-9.4 20.88,-19.96 30.79,-30.43 9.51,-10.83 19.13,-21.56 27.46,-33.47 -11.1,9.39 -20.89,19.96 -30.79,30.43 -9.51,10.83 -19.13,21.56 -27.46,33.47"
       style="fill:#fab257;fill-opacity:1;fill-rule:nonzero;stroke:none"
       transform="matrix(0.03527778,0,0,-0.03527778,-42.331275,207.30182)"
       clip-path="url(#clipPath1048)" />
    <path
       id="path1049"
       d="m 4899.19,2168.06 c -9.39,-11.08 -19.96,-20.88 -30.43,-30.79 -10.82,-9.51 -21.55,-19.14 -33.46,-27.46 9.38,11.11 19.95,20.89 30.43,30.79 10.83,9.52 21.56,19.13 33.46,27.46"
       style="fill:#fab257;fill-opacity:1;fill-rule:nonzero;stroke:none"
       transform="matrix(0.03527778,0,0,-0.03527778,-42.331275,207.30182)"
       clip-path="url(#clipPath1050)" />
    <path
       id="path1051"
       d="m 3106.99,3657.38 c 21.04,0.89 41.99,0.04 62.96,-0.66 20.94,-1.24 41.89,-2.32 62.76,-5.16 -21.04,-0.91 -42,-0.05 -62.97,0.66 -20.94,1.23 -41.89,2.32 -62.75,5.16"
       style="fill:#fab257;fill-opacity:1;fill-rule:nonzero;stroke:none"
       transform="matrix(0.03527778,0,0,-0.03527778,-42.331275,207.30182)"
       clip-path="url(#clipPath1052)" />
    <path
       id="path1053"
       d="m 3172.76,3717.33 c 0.89,-21.04 0.04,-42 -0.66,-62.97 -1.23,-20.94 -2.32,-41.89 -5.16,-62.76 -0.91,21.04 -0.05,42 0.66,62.97 1.23,20.94 2.32,41.89 5.16,62.76"
       style="fill:#fab257;fill-opacity:1;fill-rule:nonzero;stroke:none"
       transform="matrix(0.03527778,0,0,-0.03527778,-42.331275,207.30182)"
       clip-path="url(#clipPath1054)" />
    <path
       id="path1055"
       d="m 3140.73,3686.41 c 11.08,-9.39 20.87,-19.96 30.78,-30.43 9.51,-10.83 19.14,-21.55 27.46,-33.47 -11.1,9.39 -20.89,19.96 -30.79,30.44 -9.51,10.83 -19.12,21.56 -27.45,33.46"
       style="fill:#fab257;fill-opacity:1;fill-rule:nonzero;stroke:none"
       transform="matrix(0.03527778,0,0,-0.03527778,-42.331275,207.30182)"
       clip-path="url(#clipPath1056)" />
    <path
       id="path1057"
       d="m 3201.79,3683.59 c -9.39,-11.09 -19.96,-20.89 -30.42,-30.79 -10.84,-9.52 -21.56,-19.14 -33.47,-27.45 9.38,11.09 19.95,20.88 30.43,30.78 10.83,9.51 21.56,19.13 33.46,27.46"
       style="fill:#fab257;fill-opacity:1;fill-rule:nonzero;stroke:none"
       transform="matrix(0.03527778,0,0,-0.03527778,-42.331275,207.30182)"
       clip-path="url(#clipPath1058)" />
    <path
       id="path1059"
       d="m 4313.74,2629.17 c 10.44,8.84 21.8,16.2 33.1,23.68 11.57,7.04 23.07,14.21 35.51,19.88 -10.43,-8.84 -21.8,-16.2 -33.09,-23.68 -11.59,-7.04 -23.09,-14.2 -35.52,-19.88"
       style="fill:#fab257;fill-opacity:1;fill-rule:nonzero;stroke:none"
       transform="matrix(0.03527778,0,0,-0.03527778,-42.331275,207.30182)"
       clip-path="url(#clipPath1060)" />
    <path
       id="path1061"
       d="m 4326.26,2685.25 c 8.84,-10.43 16.2,-21.8 23.69,-33.09 7.04,-11.58 14.2,-23.07 19.88,-35.51 -8.85,10.43 -16.2,21.8 -23.68,33.09 -7.04,11.58 -14.2,23.08 -19.89,35.51"
       style="fill:#fab257;fill-opacity:1;fill-rule:nonzero;stroke:none"
       transform="matrix(0.03527778,0,0,-0.03527778,-42.331275,207.30182)"
       clip-path="url(#clipPath1062)" />
    <path
       id="path1063"
       d="m 4320.8,2657.03 c 9.49,-0.21 18.6,-2.11 27.74,-3.88 9.02,-2.28 18.08,-4.42 26.75,-8.28 -9.49,0.2 -18.6,2.11 -27.73,3.88 -9.03,2.29 -18.08,4.44 -26.76,8.28"
       style="fill:#fab257;fill-opacity:1;fill-rule:nonzero;stroke:none"
       transform="matrix(0.03527778,0,0,-0.03527778,-42.331275,207.30182)"
       clip-path="url(#clipPath1064)" />
    <path
       id="path1065"
       d="m 4354.13,2678.19 c -0.21,-9.48 -2.12,-18.59 -3.89,-27.73 -2.28,-9.03 -4.42,-18.08 -8.27,-26.75 0.19,9.48 2.11,18.59 3.88,27.73 2.29,9.03 4.43,18.08 8.28,26.75"
       style="fill:#fab257;fill-opacity:1;fill-rule:nonzero;stroke:none"
       transform="matrix(0.03527778,0,0,-0.03527778,-42.331275,207.30182)"
       clip-path="url(#clipPath1066)" />
    <path
       id="path1067"
       d="m 4993.87,3330.53 c 10.43,8.83 21.8,16.2 33.09,23.68 11.58,7.04 23.07,14.21 35.51,19.89 -10.43,-8.85 -21.8,-16.21 -33.09,-23.69 -11.58,-7.04 -23.08,-14.2 -35.51,-19.88"
       style="fill:#fab257;fill-opacity:1;fill-rule:nonzero;stroke:none"
       transform="matrix(0.03527778,0,0,-0.03527778,-42.331275,207.30182)"
       clip-path="url(#clipPath1068)" />
    <path
       id="path1069"
       d="m 5006.38,3386.61 c 8.84,-10.43 16.21,-21.8 23.69,-33.09 7.04,-11.58 14.21,-23.07 19.88,-35.51 -8.84,10.43 -16.2,21.8 -23.68,33.09 -7.04,11.58 -14.2,23.08 -19.89,35.51"
       style="fill:#fab257;fill-opacity:1;fill-rule:nonzero;stroke:none"
       transform="matrix(0.03527778,0,0,-0.03527778,-42.331275,207.30182)"
       clip-path="url(#clipPath1070)" />
    <path
       id="path1071"
       d="m 5000.93,3358.39 c 9.48,-0.21 18.59,-2.11 27.73,-3.88 9.02,-2.28 18.08,-4.42 26.75,-8.28 -9.48,0.19 -18.6,2.11 -27.73,3.88 -9.02,2.29 -18.08,4.44 -26.75,8.28"
       style="fill:#fab257;fill-opacity:1;fill-rule:nonzero;stroke:none"
       transform="matrix(0.03527778,0,0,-0.03527778,-42.331275,207.30182)"
       clip-path="url(#clipPath1072)" />
    <path
       id="path1073"
       d="m 5034.25,3379.56 c -0.21,-9.49 -2.11,-18.6 -3.88,-27.74 -2.29,-9.02 -4.42,-18.08 -8.28,-26.75 0.19,9.48 2.11,18.59 3.88,27.73 2.29,9.02 4.43,18.08 8.28,26.76"
       style="fill:#fab257;fill-opacity:1;fill-rule:nonzero;stroke:none"
       transform="matrix(0.03527778,0,0,-0.03527778,-42.331275,207.30182)"
       clip-path="url(#clipPath1074)" />
    <path
       id="path1075"
       d="m 3067.3,3122.72 c 19,16.28 39.48,30.23 60.3,43.63 20.98,13.17 42.31,25.77 65.14,36.03 -18.99,-16.3 -39.47,-30.25 -60.31,-43.64 -20.99,-13.15 -42.32,-25.75 -65.13,-36.02"
       style="fill:#fab257;fill-opacity:1;fill-rule:nonzero;stroke:none"
       transform="matrix(0.03527778,0,0,-0.03527778,-42.331275,207.30182)"
       clip-path="url(#clipPath1076)" />
    <path
       id="path1077"
       d="m 3090.19,3225.27 c 16.28,-19 30.23,-39.48 43.63,-60.31 13.17,-20.97 25.77,-42.31 36.03,-65.13 -16.3,18.99 -30.25,39.47 -43.64,60.3 -13.15,20.99 -25.75,42.32 -36.02,65.14"
       style="fill:#fab257;fill-opacity:1;fill-rule:nonzero;stroke:none"
       transform="matrix(0.03527778,0,0,-0.03527778,-42.331275,207.30182)"
       clip-path="url(#clipPath1078)" />
    <path
       id="path1079"
       d="m 3080.2,3173.67 c 17.38,-0.24 34.16,-3.16 50.8,-6.72 16.58,-3.84 33.01,-8.32 48.83,-15.52 -17.38,0.21 -34.16,3.14 -50.79,6.72 -16.58,3.86 -33.01,8.34 -48.84,15.52"
       style="fill:#fab257;fill-opacity:1;fill-rule:nonzero;stroke:none"
       transform="matrix(0.03527778,0,0,-0.03527778,-42.331275,207.30182)"
       clip-path="url(#clipPath1080)" />
    <path
       id="path1081"
       d="m 3141.14,3212.36 c -0.24,-17.38 -3.16,-34.16 -6.72,-50.79 -3.84,-16.58 -8.33,-33.01 -15.53,-48.84 0.22,17.39 3.15,34.17 6.73,50.8 3.86,16.57 8.34,33 15.52,48.83"
       style="fill:#fab257;fill-opacity:1;fill-rule:nonzero;stroke:none"
       transform="matrix(0.03527778,0,0,-0.03527778,-42.331275,207.30182)"
       clip-path="url(#clipPath1082)" />
    <path
       id="path1083"
       d="m 3369.93,3928.24 c 0,-16.58 -13.44,-30.01 -30.01,-30.01 -16.57,0 -30.01,13.43 -30.01,30.01 0,16.57 13.44,30 30.01,30 16.57,0 30.01,-13.43 30.01,-30"
       style="fill:#fde1d1;fill-opacity:1;fill-rule:nonzero;stroke:none"
       transform="matrix(0.03527778,0,0,-0.03527778,-42.331275,207.30182)"
       clip-path="url(#clipPath1084)" />
    <path
       id="path1085"
       d="m 3454.64,3975.43 c 0,-11.56 -9.38,-20.94 -20.95,-20.94 -11.56,0 -20.94,9.38 -20.94,20.94 0,11.57 9.38,20.95 20.94,20.95 11.57,0 20.95,-9.38 20.95,-20.95"
       style="fill:#fde1d1;fill-opacity:1;fill-rule:nonzero;stroke:none"
       transform="matrix(0.03527778,0,0,-0.03527778,-42.331275,207.30182)"
       clip-path="url(#clipPath1086)" />
    <path
       id="path1087"
       d="m 3360.86,3796.95 c 0,-11.57 -9.37,-20.94 -20.94,-20.94 -11.56,0 -20.94,9.37 -20.94,20.94 0,11.57 9.38,20.94 20.94,20.94 11.57,0 20.94,-9.37 20.94,-20.94"
       style="fill:#fde1d1;fill-opacity:1;fill-rule:nonzero;stroke:none"
       transform="matrix(0.03527778,0,0,-0.03527778,-42.331275,207.30182)"
       clip-path="url(#clipPath1088)" />
    <path
       id="path1089"
       d="m 3188.32,3831.02 c 0,-8.46 -6.86,-15.31 -15.31,-15.31 -8.47,0 -15.32,6.85 -15.32,15.31 0,8.46 6.85,15.32 15.32,15.32 8.45,0 15.31,-6.86 15.31,-15.32"
       style="fill:#fde1d1;fill-opacity:1;fill-rule:nonzero;stroke:none"
       transform="matrix(0.03527778,0,0,-0.03527778,-42.331275,207.30182)"
       clip-path="url(#clipPath1090)" />
    <path
       id="path1091"
       d="m 3636.56,3857.28 c 0,-8.46 -6.86,-15.32 -15.32,-15.32 -8.45,0 -15.31,6.86 -15.31,15.32 0,8.46 6.86,15.32 15.31,15.32 8.46,0 15.32,-6.86 15.32,-15.32"
       style="fill:#fde1d1;fill-opacity:1;fill-rule:nonzero;stroke:none"
       transform="matrix(0.03527778,0,0,-0.03527778,-42.331275,207.30182)"
       clip-path="url(#clipPath1092)" />
    <path
       id="path1093"
       d="m 4680.93,3916.2 c 0,-16.57 -13.44,-30.01 -30.01,-30.01 -16.57,0 -30.01,13.44 -30.01,30.01 0,16.57 13.44,30.01 30.01,30.01 16.57,0 30.01,-13.44 30.01,-30.01"
       style="fill:#fde1d1;fill-opacity:1;fill-rule:nonzero;stroke:none"
       transform="matrix(0.03527778,0,0,-0.03527778,-42.331275,207.30182)"
       clip-path="url(#clipPath1094)" />
    <path
       id="path1095"
       d="m 4367.31,3998.89 c 0,-11.57 -9.38,-20.95 -20.94,-20.95 -11.57,0 -20.95,9.38 -20.95,20.95 0,11.56 9.38,20.94 20.95,20.94 11.56,0 20.94,-9.38 20.94,-20.94"
       style="fill:#fde1d1;fill-opacity:1;fill-rule:nonzero;stroke:none"
       transform="matrix(0.03527778,0,0,-0.03527778,-42.331275,207.30182)"
       clip-path="url(#clipPath1096)" />
    <path
       id="path1097"
       d="m 4791.52,3501.96 c 0,-11.57 -9.37,-20.95 -20.94,-20.95 -11.57,0 -20.94,9.38 -20.94,20.95 0,11.56 9.37,20.94 20.94,20.94 11.57,0 20.94,-9.38 20.94,-20.94"
       style="fill:#fde1d1;fill-opacity:1;fill-rule:nonzero;stroke:none"
       transform="matrix(0.03527778,0,0,-0.03527778,-42.331275,207.30182)"
       clip-path="url(#clipPath1098)" />
    <path
       id="path1099"
       d="m 4325.42,3946.21 c 0,-8.46 -6.86,-15.32 -15.31,-15.32 -8.46,0 -15.32,6.86 -15.32,15.32 0,8.46 6.86,15.32 15.32,15.32 8.45,0 15.31,-6.86 15.31,-15.32"
       style="fill:#fde1d1;fill-opacity:1;fill-rule:nonzero;stroke:none"
       transform="matrix(0.03527778,0,0,-0.03527778,-42.331275,207.30182)"
       clip-path="url(#clipPath1100)" />
    <path
       id="path1101"
       d="m 4717.26,4086.75 c 0,-8.46 -6.86,-15.32 -15.32,-15.32 -8.46,0 -15.32,6.86 -15.32,15.32 0,8.45 6.86,15.31 15.32,15.31 8.46,0 15.32,-6.86 15.32,-15.31"
       style="fill:#fde1d1;fill-opacity:1;fill-rule:nonzero;stroke:none"
       transform="matrix(0.03527778,0,0,-0.03527778,-42.331275,207.30182)"
       clip-path="url(#clipPath1102)" />
    <path
       id="path1103"
       d="m 4509.5,2563.58 c -5.58,-15.6 -22.75,-23.73 -38.35,-18.15 -15.61,5.58 -23.74,22.75 -18.16,38.36 5.58,15.6 22.75,23.73 38.36,18.15 15.6,-5.57 23.73,-22.75 18.15,-38.36"
       style="fill:#fde1d1;fill-opacity:1;fill-rule:nonzero;stroke:none"
       transform="matrix(0.03527778,0,0,-0.03527778,-42.331275,207.30182)"
       clip-path="url(#clipPath1104)" />
    <path
       id="path1105"
       d="m 4605.15,2579.51 c -3.89,-10.89 -15.87,-16.56 -26.76,-12.67 -10.9,3.9 -16.57,15.88 -12.67,26.77 3.89,10.89 15.87,16.56 26.76,12.68 10.9,-3.9 16.57,-15.88 12.67,-26.78"
       style="fill:#fde1d1;fill-opacity:1;fill-rule:nonzero;stroke:none"
       transform="matrix(0.03527778,0,0,-0.03527778,-42.331275,207.30182)"
       clip-path="url(#clipPath1106)" />
    <path
       id="path1107"
       d="m 4456.77,2443.02 c -3.9,-10.89 -15.88,-16.57 -26.77,-12.67 -10.89,3.89 -16.56,15.88 -12.67,26.77 3.89,10.89 15.88,16.56 26.77,12.66 10.89,-3.88 16.56,-15.88 12.67,-26.76"
       style="fill:#fde1d1;fill-opacity:1;fill-rule:nonzero;stroke:none"
       transform="matrix(0.03527778,0,0,-0.03527778,-42.331275,207.30182)"
       clip-path="url(#clipPath1108)" />
    <path
       id="path1109"
       d="m 4305.76,2533.18 c -2.84,-7.96 -11.61,-12.11 -19.57,-9.27 -7.97,2.86 -12.11,11.63 -9.27,19.58 2.85,7.97 11.61,12.12 19.58,9.27 7.97,-2.84 12.12,-11.61 9.26,-19.58"
       style="fill:#fde1d1;fill-opacity:1;fill-rule:nonzero;stroke:none"
       transform="matrix(0.03527778,0,0,-0.03527778,-42.331275,207.30182)"
       clip-path="url(#clipPath1110)" />
    <path
       id="path1111"
       d="m 4567.62,2764.22 c -2.85,-7.96 -11.61,-12.11 -19.58,-9.27 -7.96,2.85 -12.11,11.62 -9.26,19.58 2.84,7.97 11.61,12.12 19.58,9.27 7.96,-2.85 12.11,-11.61 9.26,-19.58"
       style="fill:#fde1d1;fill-opacity:1;fill-rule:nonzero;stroke:none"
       transform="matrix(0.03527778,0,0,-0.03527778,-42.331275,207.30182)"
       clip-path="url(#clipPath1112)" />
    <path
       id="path1113"
       d="m 4736.68,2407.01 c -2.84,-7.97 -11.61,-12.11 -19.58,-9.27 -7.96,2.85 -12.11,11.61 -9.26,19.58 2.85,7.97 11.61,12.12 19.57,9.27 7.97,-2.85 12.12,-11.61 9.27,-19.58"
       style="fill:#fde1d1;fill-opacity:1;fill-rule:nonzero;stroke:none"
       transform="matrix(0.03527778,0,0,-0.03527778,-42.331275,207.30182)"
       clip-path="url(#clipPath1114)" />
    <path
       id="path1115"
       d="m 3377.69,3218.56 c 6.44,7.59 17.81,8.52 25.39,2.08 7.59,-6.44 8.52,-17.81 2.08,-25.4 -6.44,-7.59 -17.81,-8.51 -25.4,-2.07 -7.58,6.44 -8.51,17.81 -2.07,25.39"
       style="fill:#fde1d1;fill-opacity:1;fill-rule:nonzero;stroke:none"
       transform="matrix(0.03527778,0,0,-0.03527778,-42.331275,207.30182)"
       clip-path="url(#clipPath1116)" />
    <path
       id="path1117"
       d="m 3355.2,3493.82 c 6.44,7.58 17.81,8.51 25.39,2.07 7.59,-6.44 8.52,-17.81 2.08,-25.39 -6.44,-7.59 -17.81,-8.52 -25.4,-2.08 -7.58,6.44 -8.51,17.81 -2.07,25.4"
       style="fill:#fde1d1;fill-opacity:1;fill-rule:nonzero;stroke:none"
       transform="matrix(0.03527778,0,0,-0.03527778,-42.331275,207.30182)"
       clip-path="url(#clipPath1118)" />
    <path
       id="path1119"
       d="m 3711.38,3093.72 c 6.45,7.59 17.81,8.51 25.4,2.07 7.58,-6.44 8.52,-17.81 2.08,-25.39 -6.45,-7.59 -17.82,-8.52 -25.41,-2.08 -7.58,6.44 -8.51,17.81 -2.07,25.4"
       style="fill:#fde1d1;fill-opacity:1;fill-rule:nonzero;stroke:none"
       transform="matrix(0.03527778,0,0,-0.03527778,-42.331275,207.30182)"
       clip-path="url(#clipPath1120)" />
  </g>
</svg>
