<?xml version="1.0" encoding="UTF-8" standalone="no"?>
<!-- Created with Inkscape (http://www.inkscape.org/) -->

<svg
   width="75.263023mm"
   height="76.491554mm"
   viewBox="0 0 75.263023 76.491554"
   version="1.1"
   id="svg1"
   xmlns="http://www.w3.org/2000/svg"
   xmlns:svg="http://www.w3.org/2000/svg">
  <defs
     id="defs1">
    <clipPath
       clipPathUnits="userSpaceOnUse"
       id="clipPath1122">
      <path
         d="m 2906.49,603.609 h 2133.44 v 3792.78 H 2906.49 Z"
         transform="translate(0,2.5e-5)"
         id="path1122" />
    </clipPath>
    <clipPath
       clipPathUnits="userSpaceOnUse"
       id="clipPath1124">
      <path
         d="m 2906.49,603.609 h 2133.44 v 3792.78 H 2906.49 Z"
         transform="translate(0,2.5e-5)"
         id="path1124" />
    </clipPath>
    <clipPath
       clipPathUnits="userSpaceOnUse"
       id="clipPath1126">
      <path
         d="m 2906.49,603.609 h 2133.44 v 3792.78 H 2906.49 Z"
         transform="translate(0,2.5e-5)"
         id="path1126" />
    </clipPath>
    <clipPath
       clipPathUnits="userSpaceOnUse"
       id="clipPath1128">
      <path
         d="m 2906.49,603.609 h 2133.44 v 3792.78 H 2906.49 Z"
         transform="translate(0,2.5e-5)"
         id="path1128" />
    </clipPath>
    <clipPath
       clipPathUnits="userSpaceOnUse"
       id="clipPath1130">
      <path
         d="m 2906.49,603.609 h 2133.44 v 3792.78 H 2906.49 Z"
         transform="translate(0,2.5e-5)"
         id="path1130" />
    </clipPath>
    <clipPath
       clipPathUnits="userSpaceOnUse"
       id="clipPath1132">
      <path
         d="m 2906.49,603.609 h 2133.44 v 3792.78 H 2906.49 Z"
         transform="translate(0,2.5e-5)"
         id="path1132" />
    </clipPath>
    <clipPath
       clipPathUnits="userSpaceOnUse"
       id="clipPath1134">
      <path
         d="m 2906.49,603.609 h 2133.44 v 3792.78 H 2906.49 Z"
         transform="translate(0,2.5e-5)"
         id="path1134" />
    </clipPath>
    <clipPath
       clipPathUnits="userSpaceOnUse"
       id="clipPath1136">
      <path
         d="m 2906.49,603.609 h 2133.44 v 3792.78 H 2906.49 Z"
         transform="translate(0,2.5e-5)"
         id="path1136" />
    </clipPath>
    <clipPath
       clipPathUnits="userSpaceOnUse"
       id="clipPath1138">
      <path
         d="m 2906.49,603.609 h 2133.44 v 3792.78 H 2906.49 Z"
         transform="translate(0,2.5e-5)"
         id="path1138" />
    </clipPath>
    <clipPath
       clipPathUnits="userSpaceOnUse"
       id="clipPath1140">
      <path
         d="m 2906.49,603.609 h 2133.44 v 3792.78 H 2906.49 Z"
         transform="translate(0,2.5e-5)"
         id="path1140" />
    </clipPath>
    <clipPath
       clipPathUnits="userSpaceOnUse"
       id="clipPath1142">
      <path
         d="m 2906.49,603.609 h 2133.44 v 3792.78 H 2906.49 Z"
         transform="translate(0,2.5e-5)"
         id="path1142" />
    </clipPath>
    <clipPath
       clipPathUnits="userSpaceOnUse"
       id="clipPath1144">
      <path
         d="m 2906.49,603.609 h 2133.44 v 3792.78 H 2906.49 Z"
         transform="translate(0,2.5e-5)"
         id="path1144" />
    </clipPath>
    <clipPath
       clipPathUnits="userSpaceOnUse"
       id="clipPath1146">
      <path
         d="m 2906.49,603.609 h 2133.44 v 3792.78 H 2906.49 Z"
         transform="translate(0,2.5e-5)"
         id="path1146" />
    </clipPath>
    <clipPath
       clipPathUnits="userSpaceOnUse"
       id="clipPath1148">
      <path
         d="m 2906.49,603.609 h 2133.44 v 3792.78 H 2906.49 Z"
         transform="translate(0,2.5e-5)"
         id="path1148" />
    </clipPath>
    <clipPath
       clipPathUnits="userSpaceOnUse"
       id="clipPath1150">
      <path
         d="m 2906.49,603.609 h 2133.44 v 3792.78 H 2906.49 Z"
         transform="translate(0,2.5e-5)"
         id="path1150" />
    </clipPath>
    <clipPath
       clipPathUnits="userSpaceOnUse"
       id="clipPath1152">
      <path
         d="m 2906.49,603.609 h 2133.44 v 3792.78 H 2906.49 Z"
         transform="translate(0,2.5e-5)"
         id="path1152" />
    </clipPath>
    <clipPath
       clipPathUnits="userSpaceOnUse"
       id="clipPath1154">
      <path
         d="m 2906.49,603.609 h 2133.44 v 3792.78 H 2906.49 Z"
         transform="translate(0,2.5e-5)"
         id="path1154" />
    </clipPath>
    <clipPath
       clipPathUnits="userSpaceOnUse"
       id="clipPath1156">
      <path
         d="m 2906.49,603.609 h 2133.44 v 3792.78 H 2906.49 Z"
         transform="translate(0,2.5e-5)"
         id="path1156" />
    </clipPath>
    <clipPath
       clipPathUnits="userSpaceOnUse"
       id="clipPath1158">
      <path
         d="m 2906.49,603.609 h 2133.44 v 3792.78 H 2906.49 Z"
         transform="translate(0,2.5e-5)"
         id="path1158" />
    </clipPath>
    <clipPath
       clipPathUnits="userSpaceOnUse"
       id="clipPath1160">
      <path
         d="m 2906.49,603.609 h 2133.44 v 3792.78 H 2906.49 Z"
         transform="translate(0,2.5e-5)"
         id="path1160" />
    </clipPath>
    <clipPath
       clipPathUnits="userSpaceOnUse"
       id="clipPath1162">
      <path
         d="m 2906.49,603.609 h 2133.44 v 3792.78 H 2906.49 Z"
         transform="translate(0,2.5e-5)"
         id="path1162" />
    </clipPath>
    <clipPath
       clipPathUnits="userSpaceOnUse"
       id="clipPath1164">
      <path
         d="m 2906.49,603.609 h 2133.44 v 3792.78 H 2906.49 Z"
         transform="translate(0,2.5e-5)"
         id="path1164" />
    </clipPath>
    <clipPath
       clipPathUnits="userSpaceOnUse"
       id="clipPath1166">
      <path
         d="m 2906.49,603.609 h 2133.44 v 3792.78 H 2906.49 Z"
         transform="translate(0,2.5e-5)"
         id="path1166" />
    </clipPath>
    <clipPath
       clipPathUnits="userSpaceOnUse"
       id="clipPath1168">
      <path
         d="m 2906.49,603.609 h 2133.44 v 3792.78 H 2906.49 Z"
         transform="translate(0,2.5e-5)"
         id="path1168" />
    </clipPath>
    <clipPath
       clipPathUnits="userSpaceOnUse"
       id="clipPath1170">
      <path
         d="m 2906.49,603.609 h 2133.44 v 3792.78 H 2906.49 Z"
         transform="translate(0,2.5e-5)"
         id="path1170" />
    </clipPath>
    <clipPath
       clipPathUnits="userSpaceOnUse"
       id="clipPath1172">
      <path
         d="m 2906.49,603.609 h 2133.44 v 3792.78 H 2906.49 Z"
         transform="translate(0,2.5e-5)"
         id="path1172" />
    </clipPath>
    <clipPath
       clipPathUnits="userSpaceOnUse"
       id="clipPath1174">
      <path
         d="m 2906.49,603.609 h 2133.44 v 3792.78 H 2906.49 Z"
         transform="translate(0,2.5e-5)"
         id="path1174" />
    </clipPath>
    <clipPath
       clipPathUnits="userSpaceOnUse"
       id="clipPath1176">
      <path
         d="m 2906.49,603.609 h 2133.44 v 3792.78 H 2906.49 Z"
         transform="translate(0,2.5e-5)"
         id="path1176" />
    </clipPath>
    <clipPath
       clipPathUnits="userSpaceOnUse"
       id="clipPath1178">
      <path
         d="m 2906.49,603.609 h 2133.44 v 3792.78 H 2906.49 Z"
         transform="translate(0,2.5e-5)"
         id="path1178" />
    </clipPath>
    <clipPath
       clipPathUnits="userSpaceOnUse"
       id="clipPath1180">
      <path
         d="m 2906.49,603.609 h 2133.44 v 3792.78 H 2906.49 Z"
         transform="translate(0,2.5e-5)"
         id="path1180" />
    </clipPath>
    <clipPath
       clipPathUnits="userSpaceOnUse"
       id="clipPath1182">
      <path
         d="m 2906.49,603.609 h 2133.44 v 3792.78 H 2906.49 Z"
         transform="translate(0,2.5e-5)"
         id="path1182" />
    </clipPath>
    <clipPath
       clipPathUnits="userSpaceOnUse"
       id="clipPath1184">
      <path
         d="m 2906.49,603.609 h 2133.44 v 3792.78 H 2906.49 Z"
         transform="translate(0,2.5e-5)"
         id="path1184" />
    </clipPath>
    <clipPath
       clipPathUnits="userSpaceOnUse"
       id="clipPath1186">
      <path
         d="m 2906.49,603.609 h 2133.44 v 3792.78 H 2906.49 Z"
         transform="translate(0,2.5e-5)"
         id="path1186" />
    </clipPath>
    <clipPath
       clipPathUnits="userSpaceOnUse"
       id="clipPath1188">
      <path
         d="m 2906.49,603.609 h 2133.44 v 3792.78 H 2906.49 Z"
         transform="translate(0,2.5e-5)"
         id="path1188" />
    </clipPath>
    <clipPath
       clipPathUnits="userSpaceOnUse"
       id="clipPath1190">
      <path
         d="m 2906.49,603.609 h 2133.44 v 3792.78 H 2906.49 Z"
         transform="translate(0,2.5e-5)"
         id="path1190" />
    </clipPath>
    <clipPath
       clipPathUnits="userSpaceOnUse"
       id="clipPath1192">
      <path
         d="m 2906.49,603.609 h 2133.44 v 3792.78 H 2906.49 Z"
         transform="translate(0,2.5e-5)"
         id="path1192" />
    </clipPath>
    <clipPath
       clipPathUnits="userSpaceOnUse"
       id="clipPath1194">
      <path
         d="m 2906.49,603.609 h 2133.44 v 3792.78 H 2906.49 Z"
         transform="translate(0,2.5e-5)"
         id="path1194" />
    </clipPath>
    <clipPath
       clipPathUnits="userSpaceOnUse"
       id="clipPath1196">
      <path
         d="m 2906.49,603.609 h 2133.44 v 3792.78 H 2906.49 Z"
         transform="translate(0,2.5e-5)"
         id="path1196" />
    </clipPath>
    <clipPath
       clipPathUnits="userSpaceOnUse"
       id="clipPath1198">
      <path
         d="m 2906.49,603.609 h 2133.44 v 3792.78 H 2906.49 Z"
         transform="translate(0,2.5e-5)"
         id="path1198" />
    </clipPath>
    <clipPath
       clipPathUnits="userSpaceOnUse"
       id="clipPath1200">
      <path
         d="m 2906.49,603.609 h 2133.44 v 3792.78 H 2906.49 Z"
         transform="translate(0,2.5e-5)"
         id="path1200" />
    </clipPath>
    <clipPath
       clipPathUnits="userSpaceOnUse"
       id="clipPath1202">
      <path
         d="m 2906.49,603.609 h 2133.44 v 3792.78 H 2906.49 Z"
         transform="translate(0,2.5e-5)"
         id="path1202" />
    </clipPath>
    <clipPath
       clipPathUnits="userSpaceOnUse"
       id="clipPath1204">
      <path
         d="m 2906.49,603.609 h 2133.44 v 3792.78 H 2906.49 Z"
         transform="translate(0,2.5e-5)"
         id="path1204" />
    </clipPath>
    <clipPath
       clipPathUnits="userSpaceOnUse"
       id="clipPath1206">
      <path
         d="m 2906.49,603.609 h 2133.44 v 3792.78 H 2906.49 Z"
         transform="translate(0,2.5e-5)"
         id="path1206" />
    </clipPath>
    <clipPath
       clipPathUnits="userSpaceOnUse"
       id="clipPath1208">
      <path
         d="m 2906.49,603.609 h 2133.44 v 3792.78 H 2906.49 Z"
         transform="translate(0,2.5e-5)"
         id="path1208" />
    </clipPath>
    <clipPath
       clipPathUnits="userSpaceOnUse"
       id="clipPath1210">
      <path
         d="m 2906.49,603.609 h 2133.44 v 3792.78 H 2906.49 Z"
         transform="translate(0,2.5e-5)"
         id="path1210" />
    </clipPath>
    <clipPath
       clipPathUnits="userSpaceOnUse"
       id="clipPath1212">
      <path
         d="m 2906.49,603.609 h 2133.44 v 3792.78 H 2906.49 Z"
         transform="translate(0,2.5e-5)"
         id="path1212" />
    </clipPath>
    <clipPath
       clipPathUnits="userSpaceOnUse"
       id="clipPath1214">
      <path
         d="m 2906.49,603.609 h 2133.44 v 3792.78 H 2906.49 Z"
         transform="translate(0,2.5e-5)"
         id="path1214" />
    </clipPath>
    <clipPath
       clipPathUnits="userSpaceOnUse"
       id="clipPath1216">
      <path
         d="m 2906.49,603.609 h 2133.44 v 3792.78 H 2906.49 Z"
         transform="translate(0,2.5e-5)"
         id="path1216" />
    </clipPath>
    <clipPath
       clipPathUnits="userSpaceOnUse"
       id="clipPath1218">
      <path
         d="m 2906.49,603.609 h 2133.44 v 3792.78 H 2906.49 Z"
         transform="translate(0,2.5e-5)"
         id="path1218" />
    </clipPath>
    <clipPath
       clipPathUnits="userSpaceOnUse"
       id="clipPath1220">
      <path
         d="m 2906.49,603.609 h 2133.44 v 3792.78 H 2906.49 Z"
         transform="translate(0,2.5e-5)"
         id="path1220" />
    </clipPath>
    <clipPath
       clipPathUnits="userSpaceOnUse"
       id="clipPath1222">
      <path
         d="m 2906.49,603.609 h 2133.44 v 3792.78 H 2906.49 Z"
         transform="translate(0,2.5e-5)"
         id="path1222" />
    </clipPath>
    <clipPath
       clipPathUnits="userSpaceOnUse"
       id="clipPath1224">
      <path
         d="m 2906.49,603.609 h 2133.44 v 3792.78 H 2906.49 Z"
         transform="translate(0,2.5e-5)"
         id="path1224" />
    </clipPath>
    <clipPath
       clipPathUnits="userSpaceOnUse"
       id="clipPath1226">
      <path
         d="m 2906.49,603.609 h 2133.44 v 3792.78 H 2906.49 Z"
         transform="translate(0,2.5e-5)"
         id="path1226" />
    </clipPath>
    <clipPath
       clipPathUnits="userSpaceOnUse"
       id="clipPath1228">
      <path
         d="m 2906.49,603.609 h 2133.44 v 3792.78 H 2906.49 Z"
         transform="translate(0,2.5e-5)"
         id="path1228" />
    </clipPath>
    <clipPath
       clipPathUnits="userSpaceOnUse"
       id="clipPath1230">
      <path
         d="m 2906.49,603.609 h 2133.44 v 3792.78 H 2906.49 Z"
         transform="translate(0,2.5e-5)"
         id="path1230" />
    </clipPath>
    <clipPath
       clipPathUnits="userSpaceOnUse"
       id="clipPath1232">
      <path
         d="m 2906.49,603.609 h 2133.44 v 3792.78 H 2906.49 Z"
         transform="translate(0,2.5e-5)"
         id="path1232" />
    </clipPath>
    <clipPath
       clipPathUnits="userSpaceOnUse"
       id="clipPath1234">
      <path
         d="m 2906.49,603.609 h 2133.44 v 3792.78 H 2906.49 Z"
         transform="translate(0,2.5e-5)"
         id="path1234" />
    </clipPath>
    <clipPath
       clipPathUnits="userSpaceOnUse"
       id="clipPath1236">
      <path
         d="m 2906.49,603.609 h 2133.44 v 3792.78 H 2906.49 Z"
         transform="translate(0,2.5e-5)"
         id="path1236" />
    </clipPath>
    <clipPath
       clipPathUnits="userSpaceOnUse"
       id="clipPath1238">
      <path
         d="m 2906.49,603.609 h 2133.44 v 3792.78 H 2906.49 Z"
         transform="translate(0,2.5e-5)"
         id="path1238" />
    </clipPath>
    <clipPath
       clipPathUnits="userSpaceOnUse"
       id="clipPath1240">
      <path
         d="m 2906.49,603.609 h 2133.44 v 3792.78 H 2906.49 Z"
         transform="translate(0,2.5e-5)"
         id="path1240" />
    </clipPath>
    <clipPath
       clipPathUnits="userSpaceOnUse"
       id="clipPath1242">
      <path
         d="m 2906.49,603.609 h 2133.44 v 3792.78 H 2906.49 Z"
         transform="translate(0,2.5e-5)"
         id="path1242" />
    </clipPath>
    <clipPath
       clipPathUnits="userSpaceOnUse"
       id="clipPath1244">
      <path
         d="m 2906.49,603.609 h 2133.44 v 3792.78 H 2906.49 Z"
         transform="translate(0,2.5e-5)"
         id="path1244" />
    </clipPath>
    <clipPath
       clipPathUnits="userSpaceOnUse"
       id="clipPath1246">
      <path
         d="m 2906.49,603.609 h 2133.44 v 3792.78 H 2906.49 Z"
         transform="translate(0,2.5e-5)"
         id="path1246" />
    </clipPath>
    <clipPath
       clipPathUnits="userSpaceOnUse"
       id="clipPath1248">
      <path
         d="m 2906.49,603.609 h 2133.44 v 3792.78 H 2906.49 Z"
         transform="translate(0,2.5e-5)"
         id="path1248" />
    </clipPath>
    <clipPath
       clipPathUnits="userSpaceOnUse"
       id="clipPath1250">
      <path
         d="m 2906.49,603.609 h 2133.44 v 3792.78 H 2906.49 Z"
         transform="translate(0,2.5e-5)"
         id="path1250" />
    </clipPath>
    <clipPath
       clipPathUnits="userSpaceOnUse"
       id="clipPath1252">
      <path
         d="m 2906.49,603.609 h 2133.44 v 3792.78 H 2906.49 Z"
         transform="translate(0,2.5e-5)"
         id="path1252" />
    </clipPath>
    <clipPath
       clipPathUnits="userSpaceOnUse"
       id="clipPath1254">
      <path
         d="m 2906.49,603.609 h 2133.44 v 3792.78 H 2906.49 Z"
         transform="translate(0,2.5e-5)"
         id="path1254" />
    </clipPath>
    <clipPath
       clipPathUnits="userSpaceOnUse"
       id="clipPath1256">
      <path
         d="m 2906.49,603.609 h 2133.44 v 3792.78 H 2906.49 Z"
         transform="translate(0,2.5e-5)"
         id="path1256" />
    </clipPath>
    <clipPath
       clipPathUnits="userSpaceOnUse"
       id="clipPath1258">
      <path
         d="m 2906.49,603.609 h 2133.44 v 3792.78 H 2906.49 Z"
         transform="translate(0,2.5e-5)"
         id="path1258" />
    </clipPath>
    <clipPath
       clipPathUnits="userSpaceOnUse"
       id="clipPath1260">
      <path
         d="m 2906.49,603.609 h 2133.44 v 3792.78 H 2906.49 Z"
         transform="translate(0,2.5e-5)"
         id="path1260" />
    </clipPath>
    <clipPath
       clipPathUnits="userSpaceOnUse"
       id="clipPath1262">
      <path
         d="m 2906.49,603.609 h 2133.44 v 3792.78 H 2906.49 Z"
         transform="translate(0,2.5e-5)"
         id="path1262" />
    </clipPath>
    <clipPath
       clipPathUnits="userSpaceOnUse"
       id="clipPath1264">
      <path
         d="m 2906.49,603.609 h 2133.44 v 3792.78 H 2906.49 Z"
         transform="translate(0,2.5e-5)"
         id="path1264" />
    </clipPath>
    <clipPath
       clipPathUnits="userSpaceOnUse"
       id="clipPath1266">
      <path
         d="m 2906.49,603.609 h 2133.44 v 3792.78 H 2906.49 Z"
         transform="translate(0,2.5e-5)"
         id="path1266" />
    </clipPath>
    <clipPath
       clipPathUnits="userSpaceOnUse"
       id="clipPath1268">
      <path
         d="m 2906.49,603.609 h 2133.44 v 3792.78 H 2906.49 Z"
         transform="translate(0,2.5e-5)"
         id="path1268" />
    </clipPath>
    <clipPath
       clipPathUnits="userSpaceOnUse"
       id="clipPath1270">
      <path
         d="m 2906.49,603.609 h 2133.44 v 3792.78 H 2906.49 Z"
         transform="translate(0,2.5e-5)"
         id="path1270" />
    </clipPath>
    <clipPath
       clipPathUnits="userSpaceOnUse"
       id="clipPath1272">
      <path
         d="m 2906.49,603.609 h 2133.44 v 3792.78 H 2906.49 Z"
         transform="translate(0,2.5e-5)"
         id="path1272" />
    </clipPath>
    <clipPath
       clipPathUnits="userSpaceOnUse"
       id="clipPath1274">
      <path
         d="m 2906.49,603.609 h 2133.44 v 3792.78 H 2906.49 Z"
         transform="translate(0,2.5e-5)"
         id="path1274" />
    </clipPath>
    <clipPath
       clipPathUnits="userSpaceOnUse"
       id="clipPath1276">
      <path
         d="m 2906.49,603.609 h 2133.44 v 3792.78 H 2906.49 Z"
         transform="translate(0,2.5e-5)"
         id="path1276" />
    </clipPath>
    <clipPath
       clipPathUnits="userSpaceOnUse"
       id="clipPath1278">
      <path
         d="m 2906.49,603.609 h 2133.44 v 3792.78 H 2906.49 Z"
         transform="translate(0,2.5e-5)"
         id="path1278" />
    </clipPath>
    <clipPath
       clipPathUnits="userSpaceOnUse"
       id="clipPath1280">
      <path
         d="m 2906.49,603.609 h 2133.44 v 3792.78 H 2906.49 Z"
         transform="translate(0,2.5e-5)"
         id="path1280" />
    </clipPath>
    <clipPath
       clipPathUnits="userSpaceOnUse"
       id="clipPath1282">
      <path
         d="m 2906.49,603.609 h 2133.44 v 3792.78 H 2906.49 Z"
         transform="translate(0,2.5e-5)"
         id="path1282" />
    </clipPath>
    <clipPath
       clipPathUnits="userSpaceOnUse"
       id="clipPath1284">
      <path
         d="m 2906.49,603.609 h 2133.44 v 3792.78 H 2906.49 Z"
         transform="translate(0,2.5e-5)"
         id="path1284" />
    </clipPath>
  </defs>
  <g
     id="layer1"
     transform="translate(-67.468755,-110.33124)">
    <path
       id="path1121"
       d="m 5466.3,1259.25 v 112.45 h -11.83 l -3.49,195.26 c -58.91,75.52 -166.32,95.91 -261.39,84.25 -95.07,-11.66 -185.03,-49.18 -279.02,-67.62 -225.52,-44.23 -456.69,23.46 -674.26,97.51 -217.56,74.05 -440.44,156.39 -669.8,141.91 C 3270.83,1804.35 2998.18,1626 2702,1633.25 c -95.35,2.34 -189.27,24.06 -284.52,29.09 -95.23,5.03 -196.8,-9.06 -271.05,-68.92 V 1371.7 1207.5 989.488 H 2146 V 582.23 h 3306.82 v 277.18 h 13.48 v 368.24 l 4.3,0.02 -4.3,31.58"
       style="fill:#ffffff;fill-opacity:1;fill-rule:nonzero;stroke:none"
       transform="matrix(0.03527778,0,0,-0.03527778,-35.06576,208.11678)"
       clip-path="url(#clipPath1122)" />
    <path
       id="path1123"
       d="m 4727.09,2226.89 -0.53,-1.17 c -4.8,-11.01 -9.76,-21.97 -14.82,-32.87 -7.04,-15.36 -14.35,-30.65 -21.92,-45.82 -52.21,-16.4 -97.77,-0.83 -119.07,39.69 0,0 7.69,14.59 16.47,31.96 5.91,11.74 12.32,24.7 17.1,35.32 1.11,2.42 2.12,4.68 3.04,6.81 l 1.01,2.59 c 8.4,22.05 4.43,45.67 -8.33,63.24 l -0.04,0.04 c -8.84,12.14 -21.83,21.41 -37.85,25.24 l -0.19,0.07 -1.25,0.29 c -4.71,1.13 -9.49,1.69 -14.19,1.76 -12.93,0.22 -25.56,-3.44 -36.41,-10.29 -6.02,-3.8 -11.45,-8.61 -16.05,-14.31 l -0.68,-0.79 c -7.28,-9.26 -14.57,-18.51 -21.79,-27.85 -5.63,-7.24 -11.26,-14.47 -16.81,-21.77 -8.76,-11.38 -17.43,-22.76 -26.04,-34.2 -5.31,-7 -10.54,-13.97 -15.77,-21.02 -9.68,-12.98 -19.31,-26 -28.84,-39.08 -7.16,-9.79 -14.29,-19.62 -21.33,-29.48 -8.95,-12.39 -17.78,-24.84 -26.54,-37.34 v -0.04 c -10.16,-14.39 -20.2,-28.85 -30.17,-43.35 -8.1,-11.79 -16.12,-23.63 -24.14,-35.52 -9.68,-14.42 -19.29,-28.89 -28.77,-43.42 -7.72,-11.68 -15.32,-23.43 -22.89,-35.22 -10.78,-16.76 -21.41,-33.61 -31.93,-50.53 -7.11,-11.37 -14.14,-22.79 -21.14,-34.26 -8.43,-13.84 -16.78,-27.73 -25.07,-41.66 -6.73,-11.35 -13.44,-22.74 -20.07,-34.14 -7.37,-12.7 -14.68,-25.45 -21.91,-38.25 -6.35,-11.12 -12.58,-22.29 -18.82,-33.47 -8.42,-15.24 -16.78,-30.54 -25.02,-45.89 -2.65,7.59 -9.54,11.43 -17.49,14.38 -8.94,3.34 -19.23,5.59 -26.54,10.73 4.84,11.59 9.76,23.15 14.76,34.66 4.81,11.06 9.66,22.11 14.58,33.12 5.79,12.84 11.6,25.6 17.58,38.35 5.08,11.01 10.28,22.02 15.56,32.93 7.12,14.87 14.4,29.68 21.83,44.42 5.43,10.89 10.98,21.76 16.6,32.58 8.81,17.12 17.86,34.17 27.06,51.11 5.87,10.86 11.8,21.64 17.86,32.43 8.83,15.84 17.82,31.57 26.95,47.23 6.25,10.73 12.57,21.42 19.01,32.04 8.64,14.48 17.42,28.88 26.4,43.19 6.7,10.8 13.48,21.57 20.37,32.25 6.79,10.57 13.66,21.12 20.6,31.6 7.11,10.84 14.34,21.67 21.67,32.41 9.61,14.19 19.36,28.29 29.25,42.27 7.14,10.2 14.39,20.3 21.72,30.39 14.42,19.98 29.13,39.8 44.15,59.41 7.33,9.64 14.75,19.24 22.24,28.78 4.59,5.9 9.22,11.8 13.88,17.64 9.59,12.11 20.64,22.67 32.71,31.64 10.04,7.4 20.8,13.66 32.11,18.72 27.44,12.31 57.98,17.38 88.56,13.99 4.71,-0.52 9.43,-1.28 14.17,-2.2 1.05,-0.24 2.07,-0.42 3.08,-0.64 6.37,-1.29 12.58,-2.9 18.58,-4.85 27.85,-8.91 51.81,-24.46 70.71,-44.4 8.39,-8.81 15.76,-18.53 22.08,-28.85 11.69,-19.22 19.67,-40.69 23.28,-63.14 1.93,-11.78 2.6,-23.87 1.98,-36.05 -1.02,-20.54 -5.7,-41.31 -14.54,-61.41"
       style="fill:#ef2f48;fill-opacity:1;fill-rule:nonzero;stroke:none"
       transform="matrix(0.03527778,0,0,-0.03527778,-35.06576,208.11678)"
       clip-path="url(#clipPath1124)" />
    <path
       id="path1125"
       d="m 4110.17,1761.52 c -6.35,-11.12 -12.58,-22.29 -18.82,-33.47 -18.4,3.21 -36.57,7.88 -54.29,13.88 4.81,11.06 9.66,22.11 14.58,33.12 19.09,-6.25 38.69,-10.75 58.53,-13.53"
       style="fill:#ffffff;fill-opacity:1;fill-rule:nonzero;stroke:none"
       transform="matrix(0.03527778,0,0,-0.03527778,-35.06576,208.11678)"
       clip-path="url(#clipPath1126)" />
    <path
       id="path1127"
       d="m 4152.15,1833.91 c -6.73,-11.35 -13.44,-22.74 -20.07,-34.14 -21.3,2.66 -42.34,7.21 -62.86,13.63 5.08,11.01 10.28,22.02 15.56,32.93 22.01,-6.47 44.54,-10.59 67.37,-12.42"
       style="fill:#ffffff;fill-opacity:1;fill-rule:nonzero;stroke:none"
       transform="matrix(0.03527778,0,0,-0.03527778,-35.06576,208.11678)"
       clip-path="url(#clipPath1128)" />
    <path
       id="path1129"
       d="m 4198.36,1909.83 c -7.11,-11.37 -14.14,-22.79 -21.14,-34.26 -23.95,2.76 -47.64,7.81 -70.61,15.18 5.43,10.89 10.98,21.76 16.6,32.58 24.49,-7.34 49.67,-11.85 75.15,-13.5"
       style="fill:#ffffff;fill-opacity:1;fill-rule:nonzero;stroke:none"
       transform="matrix(0.03527778,0,0,-0.03527778,-35.06576,208.11678)"
       clip-path="url(#clipPath1130)" />
    <path
       id="path1131"
       d="m 4253.18,1995.58 c -7.72,-11.68 -15.32,-23.43 -22.89,-35.22 -27.07,1.72 -53.95,6.47 -80.02,14.08 5.87,10.86 11.8,21.64 17.86,32.43 27.75,-7.36 56.25,-11.18 85.05,-11.29"
       style="fill:#ffffff;fill-opacity:1;fill-rule:nonzero;stroke:none"
       transform="matrix(0.03527778,0,0,-0.03527778,-35.06576,208.11678)"
       clip-path="url(#clipPath1132)" />
    <path
       id="path1133"
       d="m 4306.09,2074.52 c -8.1,-11.79 -16.12,-23.63 -24.14,-35.52 -29.44,1.54 -58.64,6.62 -86.87,15.1 6.25,10.73 12.57,21.42 19.01,32.04 29.94,-8.08 60.83,-12.01 92,-11.62"
       style="fill:#ffffff;fill-opacity:1;fill-rule:nonzero;stroke:none"
       transform="matrix(0.03527778,0,0,-0.03527778,-35.06576,208.11678)"
       clip-path="url(#clipPath1134)" />
    <path
       id="path1135"
       d="m 4362.8,2155.25 c -8.95,-12.39 -17.78,-24.84 -26.54,-37.34 v -0.04 c -32.28,-0.35 -64.53,3.48 -95.77,11.46 6.7,10.8 13.48,21.57 20.37,32.25 33.28,-7.25 67.57,-9.43 101.94,-6.33"
       style="fill:#ffffff;fill-opacity:1;fill-rule:nonzero;stroke:none"
       transform="matrix(0.03527778,0,0,-0.03527778,-35.06576,208.11678)"
       clip-path="url(#clipPath1136)" />
    <path
       id="path1137"
       d="m 4412.97,2223.81 c -9.68,-12.98 -19.31,-26 -28.84,-39.08 -34.49,-2 -69.08,0.88 -102.67,8.45 7.11,10.84 14.34,21.67 21.67,32.41 35.99,-6.58 72.96,-7.23 109.84,-1.78"
       style="fill:#ffffff;fill-opacity:1;fill-rule:nonzero;stroke:none"
       transform="matrix(0.03527778,0,0,-0.03527778,-35.06576,208.11678)"
       clip-path="url(#clipPath1138)" />
    <path
       id="path1139"
       d="m 4454.78,2279.03 c -8.76,-11.38 -17.43,-22.76 -26.04,-34.2 -33.04,3.3 -65.48,11.07 -96.36,23.03 7.14,10.2 14.39,20.3 21.72,30.39 32.15,-11.42 66.02,-17.94 100.68,-19.22"
       style="fill:#ffffff;fill-opacity:1;fill-rule:nonzero;stroke:none"
       transform="matrix(0.03527778,0,0,-0.03527778,-35.06576,208.11678)"
       clip-path="url(#clipPath1140)" />
    <path
       id="path1141"
       d="m 4420.49,2386.44 c 21.67,-22.22 46.36,-41.38 73.57,-57 l -0.68,-0.79 c -7.28,-9.26 -14.57,-18.51 -21.79,-27.85 -26.78,15.8 -51.43,34.95 -73.34,56.86 7.33,9.64 14.75,19.24 22.24,28.78"
       style="fill:#ffffff;fill-opacity:1;fill-rule:nonzero;stroke:none"
       transform="matrix(0.03527778,0,0,-0.03527778,-35.06576,208.11678)"
       clip-path="url(#clipPath1142)" />
    <path
       id="path1143"
       d="m 4499.19,2454.44 c 10.05,-35.6 25.94,-69.48 47.33,-100.4 -12.93,0.22 -25.56,-3.44 -36.41,-10.29 -18.54,28.57 -32.99,59.58 -43.03,91.97 10.04,7.4 20.8,13.66 32.11,18.72"
       style="fill:#ffffff;fill-opacity:1;fill-rule:nonzero;stroke:none"
       transform="matrix(0.03527778,0,0,-0.03527778,-35.06576,208.11678)"
       clip-path="url(#clipPath1144)" />
    <path
       id="path1145"
       d="m 4726.56,2225.72 c -4.8,-11.01 -9.76,-21.97 -14.82,-32.87 -39.41,16.41 -81.48,25.2 -124.53,25.83 5.92,11.74 12.33,24.7 17.11,35.32 42.06,-2.43 83.5,-12 122.24,-28.28"
       style="fill:#ffffff;fill-opacity:1;fill-rule:nonzero;stroke:none"
       transform="matrix(0.03527778,0,0,-0.03527778,-35.06576,208.11678)"
       clip-path="url(#clipPath1146)" />
    <path
       id="path1147"
       d="m 4562.15,2351.92 c 2.17,40.04 10.89,79.43 25.6,116.51 4.71,-0.52 9.43,-1.28 14.17,-2.2 1.05,-0.24 2.07,-0.42 3.08,-0.64 6.37,-1.29 12.58,-2.9 18.58,-4.85 -16.86,-40.35 -25.8,-83.76 -26.14,-128.38 27.17,33.4 60.03,61.87 96.85,83.98 8.39,-8.81 15.76,-18.53 22.08,-28.85 -35.62,-20.83 -67.08,-47.97 -93.08,-80.45 37.61,11.93 76.96,17.78 116.36,17.31 1.93,-11.78 2.6,-23.87 1.98,-36.05 -45.51,0.79 -90.66,-7.57 -133.26,-24.9 14.22,37.3 -7.02,79.1 -46.22,88.52"
       style="fill:#ffffff;fill-opacity:1;fill-rule:nonzero;stroke:none"
       transform="matrix(0.03527778,0,0,-0.03527778,-35.06576,208.11678)"
       clip-path="url(#clipPath1148)" />
    <path
       id="path1149"
       d="m 4470.17,2385.57 c -15.57,0 -27.6,21.4 -11.52,31.76 3.97,2.56 7.99,4.97 12.08,7.23 3.92,-11.35 8.38,-22.51 13.37,-33.44 -1.33,-0.81 -2.65,-1.63 -3.97,-2.48 -3.33,-2.14 -6.72,-3.07 -9.96,-3.07 m 169.53,14.72 c -2.26,0 -4.66,0.47 -7.15,1.51 -8.35,3.47 -16.91,6.23 -25.58,8.28 2.82,11.62 6.25,23.08 10.27,34.32 10.02,-2.46 19.93,-5.71 29.66,-9.75 18.82,-7.83 9.83,-34.36 -7.2,-34.36 m -122.83,5.93 c -4.92,10.79 -9.26,21.82 -13.01,33.04 21.18,7.25 43.28,10.93 65.49,10.93 3.87,0 7.73,-0.11 11.6,-0.34 -3.9,-11.59 -7.23,-23.37 -9.97,-35.3 -0.78,0.01 -1.55,0.02 -2.33,0.02 -17.55,0 -35.04,-2.79 -51.78,-8.35"
       style="fill:#f14364;fill-opacity:1;fill-rule:nonzero;stroke:none"
       transform="matrix(0.03527778,0,0,-0.03527778,-35.06576,208.11678)"
       clip-path="url(#clipPath1150)" />
    <path
       id="path1151"
       d="m 4484.1,2391.12 c -4.99,10.93 -9.45,22.09 -13.37,33.44 10.69,5.91 21.78,10.82 33.13,14.7 3.75,-11.22 8.09,-22.25 13.01,-33.04 -11.34,-3.76 -22.34,-8.8 -32.77,-15.1"
       style="fill:#ffffff;fill-opacity:1;fill-rule:nonzero;stroke:none"
       transform="matrix(0.03527778,0,0,-0.03527778,-35.06576,208.11678)"
       clip-path="url(#clipPath1152)" />
    <path
       id="path1153"
       d="m 4606.97,2410.08 c -11.85,2.81 -23.93,4.3 -35.99,4.47 2.74,11.93 6.07,23.71 9.97,35.3 12.15,-0.7 24.3,-2.51 36.29,-5.45 -4.02,-11.24 -7.45,-22.7 -10.27,-34.32"
       style="fill:#ffffff;fill-opacity:1;fill-rule:nonzero;stroke:none"
       transform="matrix(0.03527778,0,0,-0.03527778,-35.06576,208.11678)"
       clip-path="url(#clipPath1154)" />
    <path
       id="path1155"
       d="m 4217.37,1940.13 c -8.99,1.93 -17.91,4.16 -26.74,6.65 -1.91,0.55 -3.83,1.12 -5.75,1.74 3.09,5.31 6.21,10.65 9.32,15.94 11.96,-1.96 24,-3.33 36.09,-4.1 -4.33,-6.73 -8.63,-13.47 -12.92,-20.23 m 33.73,55.46 c -12.35,0.13 -24.64,0.93 -36.84,2.41 5.58,9.19 11.21,18.33 16.9,27.44 6.87,-9.62 13.61,-19.6 19.94,-29.85"
       style="fill:#e62337;fill-opacity:1;fill-rule:nonzero;stroke:none"
       transform="matrix(0.03527778,0,0,-0.03527778,-35.06576,208.11678)"
       clip-path="url(#clipPath1156)" />
    <path
       id="path1157"
       d="m 4230.29,1960.36 v 0 c -12.09,0.77 -24.13,2.14 -36.09,4.1 6.62,11.23 13.3,22.41 20.06,33.54 12.2,-1.48 24.49,-2.28 36.84,-2.41 0.34,-0.55 0.67,-1.09 1,-1.64 -7.35,-11.14 -14.6,-22.35 -21.81,-33.59"
       style="fill:#f8a3ad;fill-opacity:1;fill-rule:nonzero;stroke:none"
       transform="matrix(0.03527778,0,0,-0.03527778,-35.06576,208.11678)"
       clip-path="url(#clipPath1158)" />
    <path
       id="path1159"
       d="m 4168.05,1919.21 c 0.55,0.97 1.09,1.91 1.64,2.88 1.13,-0.18 2.26,-0.35 3.39,-0.51 3.88,-0.56 7.77,-1.06 11.67,-1.52 l -16.7,-0.85"
       style="fill:#e62337;fill-opacity:1;fill-rule:nonzero;stroke:none"
       transform="matrix(0.03527778,0,0,-0.03527778,-35.06576,208.11678)"
       clip-path="url(#clipPath1160)" />
    <path
       id="path1161"
       d="m 4265.02,2013.59 c -4.9,9.74 -10.1,19.3 -15.49,28.55 10.75,-1.52 21.57,-2.57 32.42,-3.14 -5.67,-8.45 -11.32,-16.92 -16.93,-25.41 m 36.84,60.9 c -12.67,0 -25.29,0.72 -37.81,2.13 9.63,14.55 19.42,28.96 29.41,43.24 12.86,-1.34 25.78,-2.01 38.73,-2.01 1.35,0 2.71,0.01 4.07,0.02 -10.16,-14.39 -20.2,-28.85 -30.17,-43.35 v 0 c -1.42,-0.02 -2.82,-0.03 -4.23,-0.03 m 30.53,79.39 c -4.79,0 -9.57,0.1 -14.34,0.31 7.55,10.28 15.2,20.47 22.97,30.57 7.26,-0.43 14.54,-0.64 21.81,-0.64 7.1,0 14.21,0.2 21.3,0.61 -7.16,-9.79 -14.29,-19.62 -21.33,-29.48 v 0 c -10.15,-0.91 -20.29,-1.37 -30.41,-1.37 m 36.68,66.31 c 8.17,10.03 16.49,19.98 24.93,29.8 11.47,-2.27 23.07,-3.99 34.74,-5.16 -5.31,-7 -10.54,-13.97 -15.77,-21.02 v 0 c -14.65,-2.17 -29.3,-3.37 -43.9,-3.62 m 85.71,58.84 c -10.96,0.41 -21.84,1.34 -32.61,2.78 7.17,7.85 14.43,15.63 21.8,23.32 2.61,2.74 5.24,5.46 7.91,8.16 6.43,-4.36 13,-8.53 19.71,-12.49 -5.63,-7.24 -11.26,-14.47 -16.81,-21.77 v 0 m 145.22,47.65 c -3.65,5.01 -8.01,9.54 -13,13.4 4.99,-3.86 9.36,-8.38 13,-13.4 v 0 m -105.94,2.76 c -4.9,2.81 -9.72,5.74 -14.45,8.78 7.68,5.83 15.8,11 24.5,15.1 1.95,-3.22 3.95,-6.41 6,-9.57 -6.02,-3.8 -11.45,-8.61 -16.05,-14.31 v 0 m 103.38,2.92 c 0,0.38 0.01,0.75 0.01,1.13 0.11,-0.24 0.22,-0.47 0.33,-0.71 -0.11,-0.14 -0.23,-0.28 -0.34,-0.42 m -10.52,7.78 c -0.04,0.03 -0.08,0.06 -0.12,0.09 0.04,-0.03 0.08,-0.06 0.12,-0.09 m -24.53,11.72 c -0.08,0.02 -0.16,0.04 -0.24,0.06 0.08,-0.02 0.16,-0.04 0.24,-0.06 m -0.24,0.06 v 0 l -0.19,0.07 -1.25,0.29 c -4.71,1.13 -9.49,1.69 -14.19,1.76 v 0 c -1.89,2.74 -3.74,5.5 -5.55,8.28 0.73,0.02 1.47,0.03 2.2,0.03 6.64,0 13.22,-0.8 19.5,-2.47 -0.21,-2.65 -0.38,-5.3 -0.52,-7.96"
       style="fill:#e62337;fill-opacity:1;fill-rule:nonzero;stroke:none"
       transform="matrix(0.03527778,0,0,-0.03527778,-35.06576,208.11678)"
       clip-path="url(#clipPath1162)" />
    <path
       id="path1163"
       d="m 4281.95,2039 v 0 c -10.85,0.57 -21.67,1.62 -32.42,3.14 -1.24,2.14 -2.51,4.28 -3.77,6.39 6.02,9.41 12.12,18.78 18.29,28.09 12.52,-1.41 25.14,-2.13 37.81,-2.13 1.41,0 2.81,0.01 4.23,0.03 v 0 c -8.1,-11.79 -16.12,-23.63 -24.14,-35.52"
       style="fill:#f8a3ad;fill-opacity:1;fill-rule:nonzero;stroke:none"
       transform="matrix(0.03527778,0,0,-0.03527778,-35.06576,208.11678)"
       clip-path="url(#clipPath1164)" />
    <path
       id="path1165"
       d="m 4332.19,2117.85 c -12.95,0 -25.87,0.67 -38.73,2.01 8.07,11.54 16.27,22.99 24.59,34.33 4.77,-0.21 9.55,-0.31 14.34,-0.31 10.12,0 20.26,0.46 30.41,1.37 v 0 c -8.95,-12.39 -17.78,-24.84 -26.54,-37.34 v -0.04 0 c -1.36,-0.01 -2.72,-0.02 -4.07,-0.02"
       style="fill:#f8a3ad;fill-opacity:1;fill-rule:nonzero;stroke:none"
       transform="matrix(0.03527778,0,0,-0.03527778,-35.06576,208.11678)"
       clip-path="url(#clipPath1166)" />
    <path
       id="path1167"
       d="m 4362.83,2184.12 c -7.27,0 -14.55,0.21 -21.81,0.64 9.19,11.94 18.53,23.75 28.05,35.43 14.6,0.25 29.25,1.45 43.9,3.62 v 0 c -9.68,-12.98 -19.31,-26 -28.84,-39.08 v 0 c -7.09,-0.41 -14.2,-0.61 -21.3,-0.61"
       style="fill:#f8a3ad;fill-opacity:1;fill-rule:nonzero;stroke:none"
       transform="matrix(0.03527778,0,0,-0.03527778,-35.06576,208.11678)"
       clip-path="url(#clipPath1168)" />
    <path
       id="path1169"
       d="m 4428.74,2244.83 v 0 c -11.67,1.17 -23.27,2.89 -34.74,5.16 9.22,10.74 18.6,21.34 28.17,31.82 10.77,-1.44 21.65,-2.37 32.61,-2.78 v 0 c -8.76,-11.38 -17.43,-22.76 -26.04,-34.2"
       style="fill:#f8a3ad;fill-opacity:1;fill-rule:nonzero;stroke:none"
       transform="matrix(0.03527778,0,0,-0.03527778,-35.06576,208.11678)"
       clip-path="url(#clipPath1170)" />
    <path
       id="path1171"
       d="m 4471.59,2300.8 v 0 c -6.71,3.96 -13.28,8.13 -19.71,12.49 8.76,8.87 17.89,17.45 27.73,24.93 4.73,-3.04 9.55,-5.97 14.45,-8.78 v 0 l -0.68,-0.79 c -7.28,-9.26 -14.57,-18.51 -21.79,-27.85"
       style="fill:#f8a3ad;fill-opacity:1;fill-rule:nonzero;stroke:none"
       transform="matrix(0.03527778,0,0,-0.03527778,-35.06576,208.11678)"
       clip-path="url(#clipPath1172)" />
    <path
       id="path1173"
       d="m 4510.11,2343.75 v 0 c -2.05,3.16 -4.05,6.35 -6,9.57 1.71,0.81 3.45,1.57 5.21,2.29 9.93,4.07 20.84,6.43 31.65,6.71 1.81,-2.78 3.66,-5.54 5.55,-8.28 v 0 c -0.35,0.01 -0.71,0.01 -1.07,0.01 -12.56,0 -24.79,-3.64 -35.34,-10.3"
       style="fill:#f8a3ad;fill-opacity:1;fill-rule:nonzero;stroke:none"
       transform="matrix(0.03527778,0,0,-0.03527778,-35.06576,208.11678)"
       clip-path="url(#clipPath1174)" />
    <path
       id="path1175"
       d="m 4600,2326.68 c -3.64,5.02 -8.01,9.54 -13,13.4 v 0 c -0.03,0.02 -0.05,0.04 -0.08,0.06 v 0 c -0.04,0.03 -0.08,0.06 -0.12,0.09 v 0 c -6.99,5.35 -15.19,9.39 -24.41,11.63 v 0 c -0.08,0.02 -0.16,0.04 -0.24,0.06 v 0 0 c 0.14,2.66 0.31,5.31 0.52,7.96 9.24,-2.47 17.82,-6.84 24.97,-13.4 4.4,-4.03 7.59,-8.38 9.81,-12.99 0,-0.38 -0.01,-0.75 -0.01,-1.13 0.11,0.14 0.23,0.28 0.34,0.42 0.91,-1.99 1.65,-4.02 2.22,-6.1"
       style="fill:#f8a3ad;fill-opacity:1;fill-rule:nonzero;stroke:none"
       transform="matrix(0.03527778,0,0,-0.03527778,-35.06576,208.11678)"
       clip-path="url(#clipPath1176)" />
    <path
       id="path1177"
       d="m 4559.06,1885.6 -38.11,-232.15 -41.27,-0.13 -149.53,-0.52 -72.86,-0.23 -220.36,-0.74 0.89,153.8 0.34,61.56 202.98,7.18 106.9,3.77 211.02,7.46"
       style="fill:#ef2f48;fill-opacity:1;fill-rule:nonzero;stroke:none"
       transform="matrix(0.03527778,0,0,-0.03527778,-35.06576,208.11678)"
       clip-path="url(#clipPath1178)" />
    <path
       id="path1179"
       d="m 4330.15,1652.8 -72.86,-0.23 c -5.37,73.91 -10.78,147.88 -16.15,221.8 l 106.9,3.77 c -8.66,-74.86 -14.63,-150.04 -17.89,-225.34"
       style="fill:#f79326;fill-opacity:1;fill-rule:nonzero;stroke:none"
       transform="matrix(0.03527778,0,0,-0.03527778,-35.06576,208.11678)"
       clip-path="url(#clipPath1180)" />
    <path
       id="path1181"
       d="m 4476.7,1740.6 c -0.66,19 -1.29,38.02 -1.83,57.09 -44.76,3.19 -89.58,5.65 -134.42,7.39 1.12,12.13 2.31,24.26 3.57,36.39 l 209.48,10.28 -9.23,-56.21 c -17.1,-18.45 -36.66,-34.9 -58.73,-49.32 -2.93,-1.91 -5.87,-3.79 -8.84,-5.62 m -375.58,66.77 c 2.17,7.39 4.39,14.89 6.63,22.48 l 112.54,5.54 23.6,1.16 c 0.7,-9.64 1.4,-19.27 2.1,-28.91 -21.53,0.34 -43.08,0.51 -64.62,0.51 -26.75,0 -53.5,-0.26 -80.25,-0.78"
       style="fill:#ee2832;fill-opacity:1;fill-rule:nonzero;stroke:none"
       transform="matrix(0.03527778,0,0,-0.03527778,-35.06576,208.11678)"
       clip-path="url(#clipPath1182)" />
    <path
       id="path1183"
       d="m 4340.45,1805.08 c -31.47,1.21 -62.97,2.07 -94.46,2.56 -0.7,9.64 -1.4,19.27 -2.1,28.91 l 84.31,4.14 15.82,0.78 c -1.26,-12.13 -2.45,-24.26 -3.57,-36.39"
       style="fill:#f57821;fill-opacity:1;fill-rule:nonzero;stroke:none"
       transform="matrix(0.03527778,0,0,-0.03527778,-35.06576,208.11678)"
       clip-path="url(#clipPath1184)" />
    <path
       id="path1185"
       d="m 4585.55,1853.33 -257.35,-12.64 -107.91,-5.3 -195.42,-9.62 -14.78,85.43 210.86,10.69 109.54,5.57 252.26,12.81 2.8,-86.94"
       style="fill:#ee293e;fill-opacity:1;fill-rule:nonzero;stroke:none"
       transform="matrix(0.03527778,0,0,-0.03527778,-35.06576,208.11678)"
       clip-path="url(#clipPath1186)" />
    <path
       id="path1187"
       d="m 4328.2,1840.69 -107.91,-5.3 c -0.11,28.88 0.69,57.67 0.66,86.5 l 109.54,5.57 c -1.57,-28.87 -2.31,-57.81 -2.29,-86.77"
       style="fill:#f79326;fill-opacity:1;fill-rule:nonzero;stroke:none"
       transform="matrix(0.03527778,0,0,-0.03527778,-35.06576,208.11678)"
       clip-path="url(#clipPath1188)" />
    <path
       id="path1189"
       d="m 4267.74,1932.36 c -8.7,0.84 -17.35,1.89 -25.96,3.24 -17.3,2.7 -34.38,6.44 -51.15,11.18 -10.7,3.07 -21.87,6.86 -29.3,15.16 -8.21,9.22 -10.41,22.57 -8.5,34.8 1.89,12.17 7.37,23.43 13.08,34.37 5.74,11.09 13.54,23.3 25.92,24.85 13.27,1.6 24.14,-9.88 32.08,-20.57 21.16,-28.54 41.95,-60.7 54.55,-94.09 4.17,-10.93 -0.61,-9.89 -10.72,-8.94 m -39.18,142.96 c -8.11,11.85 -17.13,23.39 -29.05,31.4 -11.91,7.96 -27.15,12.04 -40.86,7.86 -16.75,-5.18 -27.63,-20.95 -36.5,-36.08 -12.49,-21.29 -23.85,-44.04 -26.84,-68.59 -2.93,-24.53 3.71,-51.45 22.38,-67.68 15.07,-13.18 35.63,-17.77 55.39,-20.65 24.32,-3.49 48.89,-5.06 73.48,-4.64 12.24,0.22 24.57,0.84 36.73,2.1 12.98,1.35 15.71,1.71 12.49,14.52 -12.13,48.45 -39.15,100.81 -67.22,141.76"
       style="fill:#fab257;fill-opacity:1;fill-rule:nonzero;stroke:none"
       transform="matrix(0.03527778,0,0,-0.03527778,-35.06576,208.11678)"
       clip-path="url(#clipPath1190)" />
    <path
       id="path1191"
       d="m 4301.3,1944.7 c 9.86,34.29 27.97,68.03 46.75,98.2 7.05,11.3 16.96,23.61 30.3,23.09 12.47,-0.53 21.23,-12.08 27.85,-22.66 6.58,-10.43 12.96,-21.22 15.82,-33.2 2.9,-12.04 1.79,-25.52 -5.65,-35.38 -6.73,-8.87 -17.55,-13.54 -27.97,-17.47 -16.33,-6.09 -33.06,-11.2 -50.07,-15.3 -8.48,-2.04 -17.01,-3.79 -25.62,-5.32 -10,-1.77 -14.68,-3.2 -11.41,8.04 z m -16.64,-9.12 c -2.17,-13.03 0.59,-13.17 13.63,-13.46 12.23,-0.28 24.56,0.11 36.78,0.89 24.54,1.57 48.9,5.12 72.86,10.57 19.46,4.48 39.59,10.71 53.54,25.06 17.29,17.71 21.73,45.06 16.81,69.28 -4.96,24.23 -18.13,45.97 -32.3,66.19 -10.06,14.36 -22.18,29.2 -39.3,33 -14.01,3.05 -28.86,-2.25 -40.09,-11.14 -11.24,-8.95 -19.29,-21.19 -26.41,-33.65 -24.66,-43.08 -47.35,-97.47 -55.52,-146.74"
       style="fill:#fab257;fill-opacity:1;fill-rule:nonzero;stroke:none"
       transform="matrix(0.03527778,0,0,-0.03527778,-35.06576,208.11678)"
       clip-path="url(#clipPath1192)" />
    <path
       id="path1193"
       d="M 4033.71,2420.26 3780,1962.6 l -44.23,45.17 -19.67,20.1 -83.51,85.31 -70.16,71.66 70.06,368.44 8.64,45.37 c 50.99,-17.03 100.18,-35.55 147.64,-55.5 47.4,-19.84 93.08,-41.11 137.22,-63.69 36.97,-18.85 72.88,-38.59 107.72,-59.2"
       style="fill:#f78e35;fill-opacity:1;fill-rule:nonzero;stroke:none"
       transform="matrix(0.03527778,0,0,-0.03527778,-35.06576,208.11678)"
       clip-path="url(#clipPath1194)" />
    <path
       id="path1195"
       d="m 3925.99,2479.46 c -81.59,-145.1 -150.59,-296.02 -209.89,-451.59 -2.05,-5.39 -4.07,-10.83 -6.12,-16.22 -32.86,16.52 -65.44,33.29 -98.29,49.85 7.05,17.18 14.03,34.4 20.9,51.68 56.77,141.56 108.84,284.97 156.18,429.97 47.4,-19.84 93.08,-41.11 137.22,-63.69"
       style="fill:#f03f53;fill-opacity:1;fill-rule:nonzero;stroke:none"
       transform="matrix(0.03527778,0,0,-0.03527778,-35.06576,208.11678)"
       clip-path="url(#clipPath1196)" />
    <path
       id="path1197"
       d="m 3856.13,2147.92 c -7.07,12.09 -14.82,23.78 -23.17,35.01 32.9,59.17 65.76,118.33 98.33,177.47 -14.96,14.98 -30.5,29.39 -46.56,43.19 13.39,25.46 27.14,50.76 41.26,75.87 v 0 c 36.97,-18.85 72.88,-38.59 107.72,-59.2 l -115.94,-209.14 -45.56,15.09 -10.8,-52.53 -5.28,-25.76 m -86.11,338.62 c -43.7,26.34 -89.78,48.73 -137.53,66.74 l 8.64,45.37 c 50.99,-17.03 100.18,-35.55 147.64,-55.5 -6.17,-18.89 -12.42,-37.77 -18.75,-56.61"
       style="fill:#f57525;fill-opacity:1;fill-rule:nonzero;stroke:none"
       transform="matrix(0.03527778,0,0,-0.03527778,-35.06576,208.11678)"
       clip-path="url(#clipPath1198)" />
    <path
       id="path1199"
       d="m 3884.73,2403.59 c -35.82,30.79 -74.25,58.56 -114.71,82.95 6.33,18.84 12.58,37.72 18.75,56.61 v 0 c 47.4,-19.84 93.08,-41.11 137.22,-63.69 -14.12,-25.11 -27.87,-50.41 -41.26,-75.87"
       style="fill:#f0383c;fill-opacity:1;fill-rule:nonzero;stroke:none"
       transform="matrix(0.03527778,0,0,-0.03527778,-35.06576,208.11678)"
       clip-path="url(#clipPath1200)" />
    <path
       id="path1201"
       d="m 4059.21,2463.32 -32.86,-97.73 c -40.67,35.79 -92.44,68.56 -145.39,97.03 -43.69,23.53 -88.21,44.12 -127.96,61.08 -77.99,33.21 -137.84,52.53 -137.84,52.53 l 7.9,58.65 c 54.24,-11.16 104.04,-24.54 149,-38.91 53.13,-16.93 99.54,-35.16 138.68,-52.52 96.21,-42.67 148.47,-80.13 148.47,-80.13"
       style="fill:#f78e35;fill-opacity:1;fill-rule:nonzero;stroke:none"
       transform="matrix(0.03527778,0,0,-0.03527778,-35.06576,208.11678)"
       clip-path="url(#clipPath1202)" />
    <path
       id="path1203"
       d="m 3910.74,2543.45 c -12,-26.12 -21.95,-53.19 -29.78,-80.83 -43.69,23.53 -88.21,44.12 -127.96,61.08 4.73,24.36 11.15,48.77 19.06,72.27 53.13,-16.93 99.54,-35.16 138.68,-52.52"
       style="fill:#f03f53;fill-opacity:1;fill-rule:nonzero;stroke:none"
       transform="matrix(0.03527778,0,0,-0.03527778,-35.06576,208.11678)"
       clip-path="url(#clipPath1204)" />
    <path
       id="path1205"
       d="m 3835.98,2578.27 c -6.54,4.5 -12.95,9.14 -19.21,14 -12.55,9.77 -24.48,20.26 -35.71,31.41 -7.16,7.16 -14.37,15.08 -16.61,24.95 -2.47,10.94 1.66,22.52 8.57,31.4 6.85,8.84 16.17,15.38 25.52,21.55 9.45,6.28 21.02,12.56 31.55,8.33 11.24,-4.57 14.83,-18.48 16.43,-30.47 4.25,-31.99 6.6,-66.71 1.92,-98.79 -1.5,-10.52 -4.84,-7.59 -12.46,-2.38 z m 31.82,130.86 c -1.22,12.99 -3.31,26.12 -9.27,37.74 -5.95,11.57 -16.27,21.52 -29,24.24 -15.59,3.26 -31.18,-4.48 -44.9,-12.6 -19.3,-11.42 -38.34,-24.49 -51.52,-42.69 -13.14,-18.2 -19.71,-42.51 -12.03,-63.64 6.17,-17.1 20.5,-29.81 34.93,-40.79 17.8,-13.49 36.62,-25.55 56.35,-36.05 9.83,-5.21 19.89,-10.16 30.11,-14.5 10.91,-4.65 13.24,-5.57 16.33,6.03 11.69,43.84 13.28,97.36 9,142.26"
       style="fill:#f03f53;fill-opacity:1;fill-rule:nonzero;stroke:none"
       transform="matrix(0.03527778,0,0,-0.03527778,-35.06576,208.11678)"
       clip-path="url(#clipPath1206)" />
    <path
       id="path1207"
       d="m 3868.08,2573.29 c 22.94,22.91 52.19,41.76 80.4,57.45 10.57,5.88 23.87,11.3 34.25,5.01 9.68,-5.91 11.55,-18.94 12.15,-30.27 0.63,-11.18 0.95,-22.57 -2.05,-33.35 -2.99,-10.84 -9.81,-21.07 -20.06,-25.63 -9.26,-4.08 -19.92,-3.03 -29.93,-1.56 -15.66,2.34 -31.2,5.65 -46.53,9.88 -7.64,2.12 -15.18,4.49 -22.7,7.05 -8.72,3.01 -13.08,3.93 -5.53,11.42 z m -17.23,0.09 c -7.46,-9.41 -5.34,-10.73 4.9,-16.7 9.59,-5.61 19.56,-10.73 29.62,-15.5 20.19,-9.55 41.11,-17.46 62.56,-23.67 17.43,-5.02 36.17,-8.93 53.58,-3.66 21.53,6.44 37.11,26.24 43.87,47.64 6.72,21.45 5.83,44.51 3.48,66.83 -1.68,15.84 -4.78,32.98 -16.71,43.53 -9.78,8.59 -23.92,10.92 -36.77,8.79 -12.86,-2.16 -24.65,-8.33 -35.8,-15.1 -38.57,-23.38 -80.55,-56.61 -108.73,-92.16"
       style="fill:#f03f53;fill-opacity:1;fill-rule:nonzero;stroke:none"
       transform="matrix(0.03527778,0,0,-0.03527778,-35.06576,208.11678)"
       clip-path="url(#clipPath1208)" />
    <path
       id="path1209"
       d="m 4119.36,2245.18 c 11.42,8.3 22.8,16.54 34.43,23.9 l 8.75,5.32 8.74,4.84 8.63,4.12 c 3.05,1.3 6.07,2.49 9.07,3.53 11.88,4.19 23.68,5.79 32.53,3.38 4.56,-1.23 8.76,-3.37 11.66,-5.97 2.97,-2.65 4.42,-5.39 5.21,-8.38 1.68,-6.09 0.39,-15.88 -4.45,-24.11 -5.02,-8.79 -14.51,-17.01 -25.81,-23.57 -11.12,-6.52 -23.18,-11.85 -35.77,-16.13 -12.6,-4.31 -25.74,-7.47 -39.11,-10.1 -6.11,-1.2 -13.13,-1.79 -19.94,-2.43 l -20.72,-1.58 c -12.13,-0.91 -24.3,-1.64 -36.47,-2.4 20.92,16.97 41.96,33.67 63.25,49.58 z m -68.53,-53.35 c 13.86,-1.65 27.74,-2.98 41.65,-4.3 6.97,-0.61 13.94,-1.15 20.95,-1.63 7.07,-0.4 13.96,-0.94 21.67,-0.66 14.23,0.5 28.55,2.02 42.86,4.72 14.3,2.7 28.6,6.7 42.5,12.42 7.15,2.93 14.35,6.41 21.47,10.82 7.07,4.44 14.06,9.99 20.11,17.1 6.12,7.2 10.93,16.2 13.32,25.91 2.4,9.73 2.61,20.7 -0.94,31.39 -3.5,10.75 -10.99,20.04 -19.38,26 -8.44,6.07 -17.74,9.51 -27.1,11 -19.34,2.93 -36.38,-2.69 -50.53,-9.43 -3.56,-1.7 -6.99,-3.52 -10.31,-5.39 -3.37,-2.06 -6.78,-4.13 -10.07,-6.24 l -9.27,-6.68 -8.72,-7.03 c -11.35,-9.54 -22.04,-19.45 -32.23,-29.81 -10.26,-10.28 -20.04,-20.93 -29.57,-31.79 -9.51,-10.87 -18.75,-21.93 -27.54,-33.43 l -0.04,-0.05 -2.95,-2.43 4.12,-0.49"
       style="fill:#74d0bf;fill-opacity:1;fill-rule:nonzero;stroke:none"
       transform="matrix(0.03527778,0,0,-0.03527778,-35.06576,208.11678)"
       clip-path="url(#clipPath1210)" />
    <path
       id="path1211"
       d="m 3981.3,2246.92 c -11.26,8.54 -22.44,17.04 -32.87,26.07 l -7.65,6.84 -7.19,6.99 -6.47,7.09 c -2.14,2.56 -4.17,5.12 -6.06,7.7 -7.52,10.21 -12.59,21.13 -12.98,30.41 -0.21,4.78 0.54,9.47 2.12,13.07 1.59,3.66 3.73,5.89 6.32,7.55 5.21,3.45 14.83,5.15 24.02,2.96 9.79,-2.2 20.38,-8.89 29.97,-17.83 9.49,-8.78 18.14,-18.82 25.95,-29.7 7.85,-10.87 14.79,-22.61 21.29,-34.73 2.97,-5.54 5.64,-12.15 8.3,-18.54 l 7.73,-19.53 c 4.5,-11.45 8.85,-22.99 13.23,-34.51 -22.27,15.1 -44.33,30.39 -65.71,46.16 z m 70.85,-50.12 c -2.63,13.88 -5.54,27.69 -8.49,41.53 -1.53,6.9 -3.12,13.81 -4.78,20.72 -1.75,6.95 -3.32,13.77 -5.91,21.12 -4.75,13.61 -10.5,26.98 -17.34,39.99 -6.86,13 -14.93,25.61 -24.5,37.32 -4.91,6.01 -10.35,11.92 -16.65,17.47 -6.31,5.5 -13.64,10.58 -22.15,14.29 -8.62,3.74 -18.55,5.67 -28.41,5.06 -9.87,-0.61 -20.27,-3.72 -29.25,-10.37 -9.08,-6.62 -15.57,-16.66 -18.65,-26.55 -3.17,-9.98 -3.61,-20 -2.19,-29.49 3.07,-19.56 13.49,-34.33 24.09,-45.97 2.68,-2.93 5.43,-5.69 8.19,-8.34 2.95,-2.63 5.92,-5.3 8.9,-7.84 l 9.08,-6.95 9.24,-6.3 c 12.41,-8.09 24.95,-15.43 37.78,-22.16 12.76,-6.82 25.73,-13.05 38.82,-18.98 13.1,-5.92 26.3,-11.52 39.77,-16.55 l 0.05,-0.02 3.18,-2.12 -0.78,4.14"
       style="fill:#74d0bf;fill-opacity:1;fill-rule:nonzero;stroke:none"
       transform="matrix(0.03527778,0,0,-0.03527778,-35.06576,208.11678)"
       clip-path="url(#clipPath1212)" />
    <path
       id="path1213"
       d="m 4047.94,2299.23 c -0.06,16.86 -0.09,33.65 0.91,50.09 l 0.94,12.21 1.4,11.87 2.01,11.26 c 0.86,3.87 1.8,7.65 2.87,11.3 4.17,14.49 10.75,27.12 19.15,34.12 4.3,3.61 9.22,6.24 13.7,7.29 4.57,1.09 8.16,0.62 11.57,-0.67 6.94,-2.54 15.39,-10.54 19.89,-20.91 4.93,-10.97 6.22,-25.88 4.72,-41.44 -1.44,-15.36 -4.65,-30.81 -9.23,-46.06 -4.56,-15.27 -10.58,-30.29 -17.26,-45.17 -3.06,-6.79 -7.33,-14.07 -11.4,-21.17 l -12.73,-21.34 c -7.49,-12.48 -15.15,-24.88 -22.8,-37.29 -1.77,32.12 -3.22,64.16 -3.74,95.91 z m 3.7,-103.67 c 11.1,12.43 21.92,25.06 32.74,37.77 5.36,6.39 10.68,12.82 15.95,19.35 5.24,6.63 10.49,13 15.52,20.73 9.31,14.25 17.7,29.29 24.98,45.13 7.25,15.85 13.27,32.57 17.38,50.09 2.12,9 3.76,18.43 4.45,28.42 0.63,9.98 0.15,20.61 -2.46,31.42 -2.65,10.92 -7.92,21.82 -15.53,30.83 -7.6,9.03 -17.92,16.78 -30.54,20.65 -12.65,3.98 -26.65,3.05 -38.09,-1.06 -11.58,-4.08 -21.26,-10.8 -29.11,-18.93 -16.08,-16.89 -22.44,-37.4 -25.75,-55.86 -0.83,-4.67 -1.46,-9.27 -1.96,-13.79 -0.35,-4.72 -0.73,-9.47 -0.97,-14.13 l -0.02,-13.66 0.7,-13.35 c 1.29,-17.66 3.38,-34.92 6.25,-52 2.73,-17.09 6.16,-33.98 9.95,-50.76 3.81,-16.77 8,-33.41 12.9,-49.91 l 0.02,-0.07 0.29,-4.56 3.3,3.69"
       style="fill:#74d0bf;fill-opacity:1;fill-rule:nonzero;stroke:none"
       transform="matrix(0.03527778,0,0,-0.03527778,-35.06576,208.11678)"
       clip-path="url(#clipPath1214)" />
    <path
       id="path1215"
       d="m 4056.33,1649.52 -45.16,14.26 -67.23,21.19 -68.46,21.58 -103.23,32.58 89.16,434.55 10.8,52.53 321.88,-106.61 c 0,0 -140.79,-468.89 -137.76,-470.08"
       style="fill:#74d0bf;fill-opacity:1;fill-rule:nonzero;stroke:none"
       transform="matrix(0.03527778,0,0,-0.03527778,-35.06576,208.11678)"
       clip-path="url(#clipPath1216)" />
    <path
       id="path1217"
       d="m 4069.87,2138.95 -125.93,-453.98 -68.46,21.58 107.69,469.36 86.7,-36.96"
       style="fill:#ffffff;fill-opacity:1;fill-rule:nonzero;stroke:none"
       transform="matrix(0.03527778,0,0,-0.03527778,-35.06576,208.11678)"
       clip-path="url(#clipPath1218)" />
    <path
       id="path1219"
       d="m 4062.87,1675.43 c -0.69,0.24 -1.39,0.49 -2.08,0.73 -15.13,5.36 -29.6,12.14 -43.12,20.26 23.67,116.42 52.28,231.51 83.9,346.11 -15.94,11.96 -32.26,23.42 -48.92,34.35 l 17.22,62.07 -86.7,36.96 -11.76,-51.25 c -35.59,18.63 -72.34,35.02 -110,49.02 l 10.8,52.53 321.88,-106.61 c 0,0 -18.2,-60.62 -41.37,-138.32 -4.88,-16.36 -9.99,-33.51 -15.19,-50.99 -29.06,-97.67 -61.13,-206.29 -74.66,-254.86"
       style="fill:#83d0b5;fill-opacity:1;fill-rule:nonzero;stroke:none"
       transform="matrix(0.03527778,0,0,-0.03527778,-35.06576,208.11678)"
       clip-path="url(#clipPath1220)" />
    <path
       id="path1221"
       d="m 4052.65,2076.88 c -26.27,17.25 -53.4,33.2 -81.24,47.78 l 11.76,51.25 86.7,-36.96 -17.22,-62.07"
       style="fill:#eae0d8;fill-opacity:1;fill-rule:nonzero;stroke:none"
       transform="matrix(0.03527778,0,0,-0.03527778,-35.06576,208.11678)"
       clip-path="url(#clipPath1222)" />
    <path
       id="path1223"
       d="m 4228.86,2154.73 -22.03,-95.19 -158.19,58.86 -99.49,36.96 -117.4,43.69 16.36,68.98 113.67,-33.81 103.07,-30.67 164.01,-48.82"
       style="fill:#74d0bf;fill-opacity:1;fill-rule:nonzero;stroke:none"
       transform="matrix(0.03527778,0,0,-0.03527778,-35.06576,208.11678)"
       clip-path="url(#clipPath1224)" />
    <path
       id="path1225"
       d="m 4064.85,2203.55 c -7.05,-28.03 -12.46,-56.47 -16.21,-85.15 l -99.49,36.96 c 4.27,26.29 8.37,52.53 12.63,78.86 l 103.07,-30.67"
       style="fill:#ffffff;fill-opacity:1;fill-rule:nonzero;stroke:none"
       transform="matrix(0.03527778,0,0,-0.03527778,-35.06576,208.11678)"
       clip-path="url(#clipPath1226)" />
    <path
       id="path1227"
       d="m 3468.72,2645.13 c 7.78,11.52 15.55,22.96 23.85,33.7 l 6.31,7.87 6.47,7.42 6.61,6.73 c 2.39,2.23 4.8,4.36 7.22,6.35 9.6,7.91 20,13.42 29.04,14.24 4.64,0.44 9.25,-0.08 12.83,-1.47 3.65,-1.41 5.92,-3.41 7.67,-5.89 3.62,-4.99 5.74,-14.4 4.03,-23.58 -1.68,-9.79 -7.7,-20.56 -15.96,-30.44 -8.11,-9.8 -17.49,-18.81 -27.72,-27.04 -10.23,-8.27 -21.35,-15.67 -32.86,-22.66 -5.26,-3.19 -11.57,-6.14 -17.68,-9.06 l -18.68,-8.56 c -10.95,-4.99 -21.98,-9.83 -33.02,-14.69 13.67,22.7 27.53,45.21 41.89,67.08 z m -45.51,-72.35 c 13.42,3.24 26.74,6.77 40.1,10.34 6.66,1.84 13.31,3.72 19.98,5.7 6.69,2.05 13.27,3.92 20.32,6.82 13.03,5.34 25.8,11.64 38.17,19.02 12.34,7.38 24.25,15.94 35.21,25.94 5.63,5.14 11.14,10.79 16.25,17.28 5.06,6.49 9.66,13.96 12.87,22.55 3.23,8.69 4.65,18.59 3.58,28.29 -1.06,9.73 -4.58,19.85 -11.5,28.42 -6.88,8.64 -16.98,14.59 -26.77,17.17 -9.89,2.66 -19.67,2.63 -28.86,0.77 -18.93,-3.94 -32.84,-14.94 -43.68,-25.95 -2.72,-2.79 -5.3,-5.63 -7.74,-8.48 -2.43,-3.04 -4.89,-6.1 -7.23,-9.16 l -6.34,-9.29 -5.71,-9.44 c -7.29,-12.62 -13.85,-25.36 -19.8,-38.35 -6.04,-12.92 -11.51,-26.03 -16.67,-39.25 -5.14,-13.21 -9.97,-26.51 -14.23,-40.04 l -0.02,-0.06 -1.92,-3.25 3.99,0.97"
       style="fill:#559777;fill-opacity:1;fill-rule:nonzero;stroke:none"
       transform="matrix(0.03527778,0,0,-0.03527778,-35.06576,208.11678)"
       clip-path="url(#clipPath1228)" />
    <path
       id="path1229"
       d="m 3348.23,2608.29 c -15.07,6.65 -30.05,13.29 -44.31,20.71 l -10.51,5.72 -10.02,5.97 -9.23,6.29 c -3.12,2.32 -6.1,4.67 -8.92,7.08 -11.25,9.53 -19.87,20.5 -22.73,30.85 -1.49,5.33 -1.85,10.81 -0.98,15.27 0.87,4.57 2.73,7.63 5.25,10.19 5.06,5.26 15.59,9.72 26.65,9.67 11.76,0.1 25.59,-4.66 38.85,-12.21 13.12,-7.39 25.6,-16.42 37.36,-26.63 11.79,-10.19 22.76,-21.59 33.33,-33.53 4.84,-5.46 9.6,-12.21 14.29,-18.72 l 13.91,-19.98 c 8.12,-11.71 16.09,-23.56 24.09,-35.4 -29.36,11.16 -58.52,22.58 -87.03,34.72 m 93.93,-37.83 c -6.62,14.96 -13.53,29.75 -20.5,44.57 -3.55,7.38 -7.15,14.74 -10.85,22.1 -3.8,7.37 -7.37,14.64 -12.23,22.25 -8.97,14.08 -19.01,27.63 -30.2,40.5 -11.21,12.84 -23.71,24.92 -37.67,35.6 -7.17,5.49 -14.92,10.71 -23.56,15.3 -8.64,4.54 -18.32,8.33 -29,10.26 -10.81,1.95 -22.65,1.52 -33.74,-1.78 -11.12,-3.28 -22.19,-9.52 -30.71,-19.38 -8.64,-9.84 -13.44,-22.87 -14.39,-34.83 -1.02,-12.09 1.08,-23.5 5.18,-33.82 8.58,-21.23 24.32,-35.14 39.45,-45.45 3.82,-2.6 7.67,-5 11.51,-7.25 4.06,-2.18 8.15,-4.42 12.2,-6.49 l 12.18,-5.45 12.19,-4.66 c 16.26,-5.85 32.49,-10.82 48.89,-15.02 16.33,-4.32 32.77,-7.94 49.26,-11.17 16.49,-3.22 33.02,-6.04 49.7,-8.17 l 0.07,-0.01 4.18,-1.56 -1.96,4.46"
       style="fill:#559777;fill-opacity:1;fill-rule:nonzero;stroke:none"
       transform="matrix(0.03527778,0,0,-0.03527778,-35.06576,208.11678)"
       clip-path="url(#clipPath1230)" />
    <path
       id="path1231"
       d="m 3589.32,2168.31 c -8.21,-55.25 -13.58,-98.82 -12.75,-113.23 l -88.25,-1.84 -4.3,-0.08 -81.73,-1.67 -4.3,-0.07 -111.56,-2.32 c 0,0 -27.91,288.87 -59.74,432.33 -3.54,16.04 -7.13,30.26 -10.79,42.06 -1.71,5.69 -3.47,10.79 -5.21,15.29 0,0 55.99,12.38 135.37,18.15 1.19,0.09 2.42,0.17 3.66,0.25 3.19,0.23 6.45,0.43 9.72,0.63 50.3,3.11 108.76,3.26 167.75,-3.87 4.46,-0.51 8.88,-1.07 13.34,-1.7 36.96,-5.18 73.92,-13.34 109.01,-25.61 0,0 -39.27,-217.18 -60.22,-358.32"
       style="fill:#559777;fill-opacity:1;fill-rule:nonzero;stroke:none"
       transform="matrix(0.03527778,0,0,-0.03527778,-35.06576,208.11678)"
       clip-path="url(#clipPath1232)" />
    <path
       id="path1233"
       d="m 3527.19,2553.94 -43.13,-500.3 -0.04,-0.48 -0.36,-4.06 h -81.17 l -0.2,2.39 v 0.16 l -42.85,506.16 c 50.3,3.11 108.76,3.26 167.75,-3.87"
       style="fill:#ffffff;fill-opacity:1;fill-rule:nonzero;stroke:none"
       transform="matrix(0.03527778,0,0,-0.03527778,-35.06576,208.11678)"
       clip-path="url(#clipPath1234)" />
    <path
       id="path1235"
       d="m 3617.19,2341.43 c -22.07,8.51 -44.42,15.49 -67.01,21.14 0.9,32.34 1.82,64.6 2.86,96.63 -11.05,2.93 -22.16,5.64 -33.32,8.12 l 7.47,86.62 v 0 c 4.46,-0.51 8.88,-1.07 13.34,-1.7 36.96,-5.18 73.92,-13.34 109.01,-25.61 0,0 -15.58,-86.16 -32.35,-185.2 m -390.5,140 v 0 c -3.54,16.04 -7.13,30.26 -10.79,42.06 43.37,16 88.3,27.23 133.82,33.69 3.19,0.23 6.45,0.43 9.72,0.63 v 0 l 5.97,-70.55 c -11.09,0.43 -22.18,0.64 -33.28,0.64 -35.24,0 -70.47,-2.15 -105.44,-6.47"
       style="fill:#3f874c;fill-opacity:1;fill-rule:nonzero;stroke:none"
       transform="matrix(0.03527778,0,0,-0.03527778,-35.06576,208.11678)"
       clip-path="url(#clipPath1236)" />
    <path
       id="path1237"
       d="m 3519.72,2467.32 c -50.7,11.28 -102.42,17.94 -154.31,19.94 l -5.97,70.55 c 20.4,1.26 42.15,2.03 64.72,2.03 33.09,0 67.97,-1.66 103.03,-5.9 l -7.47,-86.62"
       style="fill:#bee48b;fill-opacity:1;fill-rule:nonzero;stroke:none"
       transform="matrix(0.03527778,0,0,-0.03527778,-35.06576,208.11678)"
       clip-path="url(#clipPath1238)" />
    <path
       id="path1239"
       d="m 3671.48,2559.84 -9.12,-87.77 c -53.65,23.57 -111.56,36.07 -167.59,41.74 -57.87,5.92 -113.79,4.49 -161.06,0.43 -78.7,-6.73 -133.46,-20.82 -133.46,-20.82 l -15.21,66.42 c 51.77,12.75 100.44,21.03 145.4,26.01 65.48,7.21 123.19,7.45 171.62,4.3 107.45,-6.93 169.42,-30.31 169.42,-30.31"
       style="fill:#559777;fill-opacity:1;fill-rule:nonzero;stroke:none"
       transform="matrix(0.03527778,0,0,-0.03527778,-35.06576,208.11678)"
       clip-path="url(#clipPath1240)" />
    <path
       id="path1241"
       d="m 3502.06,2590.15 c -2.43,-25.44 -4.86,-50.89 -7.29,-76.34 -57.87,5.92 -113.79,4.49 -161.06,0.43 -2.75,23.74 -3.86,47.71 -3.27,71.61 65.48,7.21 123.19,7.45 171.62,4.3"
       style="fill:#ffffff;fill-opacity:1;fill-rule:nonzero;stroke:none"
       transform="matrix(0.03527778,0,0,-0.03527778,-35.06576,208.11678)"
       clip-path="url(#clipPath1242)" />
    <path
       id="path1243"
       d="m 3341.3,1564.88 c -21.19,-64.4 -39.32,-129.7 -54.36,-195.82 -5.11,-22.46 29.44,-32.05 34.57,-9.53 15.04,66.11 33.17,131.42 54.36,195.82 7.22,21.96 -27.38,31.38 -34.57,9.53"
       style="fill:#4b1b14;fill-opacity:1;fill-rule:nonzero;stroke:none"
       transform="matrix(0.03527778,0,0,-0.03527778,-35.06576,208.11678)"
       clip-path="url(#clipPath1244)" />
    <path
       id="path1245"
       d="m 4412.88,1335.54 c -17.36,59.55 -32.71,119.62 -46.05,180.18 -4.96,22.52 -39.52,12.99 -34.56,-9.52 13.34,-60.58 28.69,-120.65 46.04,-180.2 6.45,-22.09 41.05,-12.69 34.57,9.54"
       style="fill:#4b1b14;fill-opacity:1;fill-rule:nonzero;stroke:none"
       transform="matrix(0.03527778,0,0,-0.03527778,-35.06576,208.11678)"
       clip-path="url(#clipPath1246)" />
    <path
       id="path1247"
       d="m 4931.72,1880.59 c -5.13,22.47 -39.7,12.96 -34.56,-9.53 16.59,-72.7 34.66,-150.83 13.27,-224.51 -18.41,-63.38 -65.74,-113.63 -118.26,-151.39 -111.75,-80.33 -248.1,-126.44 -381.96,-153.23 -139.59,-27.94 -282.59,-34.56 -424.63,-33.93 -145.84,0.64 -292.53,5.47 -437.73,19.51 -167.35,16.19 -334.98,49.03 -488.29,120.18 -20.79,9.64 -39.01,-21.25 -18.09,-30.95 281.76,-130.76 604.27,-140.49 909.69,-144.29 148.86,-1.86 298.58,3.56 445.3,30.46 140.87,25.82 284.6,72.45 403.58,154.12 61.05,41.91 115.75,96.2 140.89,167.32 29.35,83.01 9.72,173.29 -9.21,256.24"
       style="fill:#4b1b14;fill-opacity:1;fill-rule:nonzero;stroke:none"
       transform="matrix(0.03527778,0,0,-0.03527778,-35.06576,208.11678)"
       clip-path="url(#clipPath1248)" />
    <path
       id="path1249"
       d="m 4768,1987.81 c -4.39,-129.87 -15.9,-268.99 -97.54,-370.08 -77.3,-95.66 -202.48,-137.75 -323,-162.2 -362.02,-73.49 -746.27,-27.45 -1083.49,123.34 -93.79,41.98 -189.81,97.57 -234.22,190.25 -13.78,28.75 -21.67,59.26 -25.21,90.64 -6.89,60.66 2.51,124.47 17.08,184.41 22.11,90.95 55.33,180.41 58.63,273.96 150.39,15.93 323.6,43.37 469.04,2 145.49,-41.42 281.26,-153.94 303.2,-303.61 11.15,-76.35 -7.32,-157.03 18.52,-229.71 39.32,-110.69 167.8,-163.58 284.96,-170.98 85.87,-5.38 173.57,7.21 252.95,39.63 29.75,12.14 58.34,27.08 85.23,44.88 85.15,56.44 157.55,145.93 186.46,244.7 4.55,15.56 8.05,31.38 10.32,47.35 1.79,0 3.58,-0.04 5.38,-0.04 24.05,-0.56 47.55,-4.54 71.69,-4.54"
       style="fill:#f25870;fill-opacity:1;fill-rule:nonzero;stroke:none"
       transform="matrix(0.03527778,0,0,-0.03527778,-35.06576,208.11678)"
       clip-path="url(#clipPath1250)" />
    <path
       id="path1251"
       d="m 4002.58,1421.2 c -215.44,0 -431.06,39.13 -633.09,114.46 -11.22,4.19 -22.36,8.47 -33.5,12.87 -24.21,9.59 -48.24,19.71 -72.02,30.34 -93.79,41.98 -189.81,97.57 -234.22,190.25 -13.78,28.75 -21.67,59.26 -25.21,90.64 34.21,-69.18 100.37,-124.14 169.3,-162.85 177.39,-99.69 385.97,-126.4 589.17,-137.6 51.37,-2.84 102.95,-4.81 154.46,-4.81 83.97,0 167.75,5.23 250.25,20.38 10,1.84 19.99,3.82 29.95,5.97 90.47,2.62 182.21,27.9 260.95,63.65 70.26,31.91 133.62,79.42 177.83,143.1 24.13,34.81 36.84,74.23 53.65,112.67 13.33,30.4 35,69.06 72.74,69.06 0.14,0 0.28,-0.01 0.42,-0.01 0.13,0 0.26,0 0.4,0 1.25,0 2.48,0.05 3.67,0.15 -4.95,-124.51 -19.06,-255.4 -96.87,-351.74 -70.55,-87.3 -180.97,-129.98 -291.33,-155.36 -10.57,-2.43 -21.13,-4.71 -31.67,-6.84 -1.12,-0.23 -2.24,-0.46 -3.37,-0.68 -112.4,-22.58 -226.94,-33.65 -341.51,-33.65"
       style="fill:#f03d51;fill-opacity:1;fill-rule:nonzero;stroke:none"
       transform="matrix(0.03527778,0,0,-0.03527778,-35.06576,208.11678)"
       clip-path="url(#clipPath1252)" />
    <path
       id="path1253"
       d="m 4799.98,2003.14 c -1.64,-17.64 -13.9,-34.01 -36.72,-33.82 -38,0.29 -59.79,-38.54 -73.16,-69.05 -16.81,-38.44 -29.52,-77.86 -53.65,-112.67 -44.21,-63.68 -107.57,-111.19 -177.83,-143.1 -136.05,-61.77 -310.77,-92.27 -451.04,-28.67 -67.83,30.78 -120.87,85.03 -147.76,154.56 -27.83,72.13 -22.18,151.23 -32.41,226.54 -18.17,133.42 -119.01,230.16 -241.99,275.29 -157.8,57.82 -331.36,32.02 -493.18,8.08 -19.83,-2.91 -39.63,4.3 -46.32,24.53 l -0.72,2.15 c -4.98,18.17 6.26,44.01 26.69,47.04 184.64,27.28 382.14,56.04 559.85,-18.44 127.48,-53.45 238.95,-157.24 265.88,-297.35 14.46,-75.19 7.21,-154.13 29.23,-227.85 19.36,-64.8 70.93,-111.91 133.94,-134.22 77.1,-27.27 161.62,-20.7 240.19,-3.54 65.16,14.18 128.48,37 184.56,73.6 56.08,36.64 95.95,86.43 120.48,148.59 27.92,70.74 69.18,151.63 157.24,150.95 26.4,-0.2 38.67,-22.26 36.72,-42.62"
       style="fill:#fab257;fill-opacity:1;fill-rule:nonzero;stroke:none"
       transform="matrix(0.03527778,0,0,-0.03527778,-35.06576,208.11678)"
       clip-path="url(#clipPath1254)" />
    <path
       id="path1255"
       d="m 4197.67,1580.85 v 0 c 90.47,2.62 182.21,27.9 260.95,63.65 70.26,31.91 133.62,79.42 177.83,143.1 24.13,34.81 36.84,74.23 53.65,112.67 13.33,30.4 35,69.06 72.74,69.06 0.14,0 0.28,-0.01 0.42,-0.01 0.13,0 0.26,0 0.4,0 1.25,0 2.48,0.05 3.67,0.15 v 0 c -1.19,-0.1 -2.42,-0.15 -3.67,-0.15 -0.14,0 -0.27,0 -0.4,0 -0.14,0 -0.28,0.01 -0.42,0.01 -37.74,0 -59.41,-38.66 -72.74,-69.06 -16.81,-38.44 -29.52,-77.86 -53.65,-112.67 -44.21,-63.68 -107.57,-111.19 -177.83,-143.1 -78.74,-35.75 -170.48,-61.03 -260.95,-63.65"
       style="fill:#dc3a3b;fill-opacity:1;fill-rule:nonzero;stroke:none"
       transform="matrix(0.03527778,0,0,-0.03527778,-35.06576,208.11678)"
       clip-path="url(#clipPath1256)" />
    <path
       id="path1257"
       d="m 4182.26,1580.63 c -60.58,-0.01 -120.21,10.5 -174.68,35.2 -67.83,30.78 -120.87,85.03 -147.76,154.56 -27.83,72.13 -22.18,151.23 -32.41,226.54 -18.17,133.42 -119.01,230.16 -241.99,275.29 -70.78,25.93 -144.76,35.05 -219.4,35.05 -91.76,0 -184.55,-13.77 -273.78,-26.97 -2.8,-0.41 -5.59,-0.62 -8.35,-0.62 -16.81,0 -32.22,7.77 -37.97,25.15 101.41,19.64 204.18,37.08 306.5,37.08 39.18,0 78.27,-2.56 117.22,-8.52 155.88,-23.9 311.17,-113.95 367.2,-259.71 25.49,-66.36 28.91,-138.56 40.31,-208.61 11.39,-70.02 33.33,-142.59 86.11,-190.66 57.36,-52.23 139.89,-65.51 218.59,-65.51 5.55,0 11.08,0.07 16.58,0.19 159.35,3.59 331.72,55.25 418.02,187.74 28.8,44.21 46.4,95.07 77.47,137.69 25.36,34.8 64.28,64.44 106.06,68.62 -1.54,-16.56 -12.44,-32 -32.65,-33.67 -1.19,-0.1 -2.42,-0.15 -3.67,-0.15 -0.14,0 -0.27,0 -0.4,0 -0.14,0 -0.28,0.01 -0.42,0.01 -37.74,0 -59.41,-38.66 -72.74,-69.06 -16.81,-38.44 -29.52,-77.86 -53.65,-112.67 -44.21,-63.68 -107.57,-111.19 -177.83,-143.1 -78.74,-35.75 -170.48,-61.03 -260.95,-63.65 -5.15,-0.15 -10.28,-0.22 -15.41,-0.22"
       style="fill:#e79e3c;fill-opacity:1;fill-rule:nonzero;stroke:none"
       transform="matrix(0.03527778,0,0,-0.03527778,-35.06576,208.11678)"
       clip-path="url(#clipPath1258)" />
    <path
       id="path1259"
       d="m 3155.86,1891.25 c -5.79,0 -11.53,0.7 -17.2,2.14 -60.5,15.37 -88.78,109.51 -63.16,210.26 23.21,91.31 82.73,156.72 138.71,156.72 5.79,0 11.53,-0.7 17.2,-2.14 60.5,-15.38 88.78,-109.52 63.17,-210.27 -23.22,-91.31 -82.73,-156.71 -138.72,-156.71"
       style="fill:#f4728a;fill-opacity:1;fill-rule:nonzero;stroke:none"
       transform="matrix(0.03527778,0,0,-0.03527778,-35.06576,208.11678)"
       clip-path="url(#clipPath1260)" />
    <path
       id="path1261"
       d="m 3229.98,1701.21 c -23.66,0 -53.16,18 -74.79,48.1 -29.02,40.39 -32.91,87.23 -8.68,104.65 6.16,4.43 13.56,6.53 21.63,6.53 23.65,0 53.15,-18 74.79,-48.11 29.02,-40.37 32.91,-87.23 8.68,-104.64 -6.16,-4.43 -13.56,-6.53 -21.63,-6.53"
       style="fill:#f4728a;fill-opacity:1;fill-rule:nonzero;stroke:none"
       transform="matrix(0.03527778,0,0,-0.03527778,-35.06576,208.11678)"
       clip-path="url(#clipPath1262)" />
    <path
       id="path1263"
       d="m 4859.62,1466.72 -31.12,-189.58 -33.69,-0.11 -122.12,-0.42 -59.49,-0.2 -179.95,-0.58 0.73,125.59 0.28,50.26 165.75,5.87 87.3,3.07 172.31,6.1"
       style="fill:#fab257;fill-opacity:1;fill-rule:nonzero;stroke:none"
       transform="matrix(0.03527778,0,0,-0.03527778,-35.06576,208.11678)"
       clip-path="url(#clipPath1264)" />
    <path
       id="path1265"
       d="m 4672.69,1276.61 -59.49,-0.2 c -4.39,60.37 -8.81,120.77 -13.19,181.14 l 87.3,3.07 c -7.07,-61.13 -11.95,-122.51 -14.62,-184.01"
       style="fill:#74d0bf;fill-opacity:1;fill-rule:nonzero;stroke:none"
       transform="matrix(0.03527778,0,0,-0.03527778,-35.06576,208.11678)"
       clip-path="url(#clipPath1266)" />
    <path
       id="path1267"
       d="m 4794.81,1277.03 c -1.22,39.36 -2.82,78.48 -3.94,117.9 -36.55,2.6 -73.14,4.61 -109.76,6.03 1.83,19.91 3.9,39.8 6.2,59.66 v 0 l 172.31,6.1 -31.12,-189.58 -33.69,-0.11 m -360.83,124.39 0.28,50.26 165.75,5.87 c 1.32,-18.16 2.64,-36.33 3.96,-54.5 -17.61,0.28 -35.21,0.42 -52.82,0.42 -39.06,0 -78.12,-0.68 -117.17,-2.05"
       style="fill:#f78f38;fill-opacity:1;fill-rule:nonzero;stroke:none"
       transform="matrix(0.03527778,0,0,-0.03527778,-35.06576,208.11678)"
       clip-path="url(#clipPath1268)" />
    <path
       id="path1269"
       d="m 4681.11,1400.96 c -25.7,0.99 -51.42,1.69 -77.14,2.09 -1.32,18.17 -2.64,36.34 -3.96,54.5 l 87.3,3.07 c -2.3,-19.86 -4.37,-39.75 -6.2,-59.66"
       style="fill:#6fb57f;fill-opacity:1;fill-rule:nonzero;stroke:none"
       transform="matrix(0.03527778,0,0,-0.03527778,-35.06576,208.11678)"
       clip-path="url(#clipPath1270)" />
    <path
       id="path1271"
       d="m 4881.26,1440.36 -210.16,-10.32 -88.12,-4.33 -159.58,-7.86 -12.07,69.78 172.19,8.72 89.46,4.55 205.98,10.46 2.3,-71"
       style="fill:#fab257;fill-opacity:1;fill-rule:nonzero;stroke:none"
       transform="matrix(0.03527778,0,0,-0.03527778,-35.06576,208.11678)"
       clip-path="url(#clipPath1272)" />
    <path
       id="path1273"
       d="m 4671.1,1430.04 -88.12,-4.33 c -0.09,23.59 0.57,47.09 0.54,70.64 l 89.46,4.55 c -1.29,-23.58 -1.9,-47.22 -1.88,-70.86"
       style="fill:#74d0bf;fill-opacity:1;fill-rule:nonzero;stroke:none"
       transform="matrix(0.03527778,0,0,-0.03527778,-35.06576,208.11678)"
       clip-path="url(#clipPath1274)" />
    <path
       id="path1275"
       d="m 4621.73,1504.9 c -7.11,0.68 -14.16,1.54 -21.2,2.64 -14.13,2.21 -28.07,5.26 -41.77,9.14 -8.74,2.51 -17.86,5.59 -23.92,12.37 -6.71,7.53 -8.5,18.43 -6.94,28.42 1.54,9.94 6.01,19.14 10.68,28.07 4.68,9.05 11.05,19.03 21.17,20.29 10.82,1.3 19.71,-8.07 26.19,-16.8 17.28,-23.3 34.25,-49.57 44.55,-76.83 3.4,-8.93 -0.5,-8.07 -8.76,-7.3 z m -32,116.74 c -6.62,9.68 -13.98,19.1 -23.72,25.63 -9.72,6.51 -22.16,9.84 -33.36,6.43 -13.68,-4.23 -22.57,-17.11 -29.81,-29.46 -10.2,-17.4 -19.47,-35.96 -21.91,-56.01 -2.4,-20.04 3.02,-42.01 18.27,-55.28 12.31,-10.75 29.1,-14.5 45.23,-16.85 19.86,-2.85 39.92,-4.14 60,-3.79 10,0.18 20.06,0.68 30,1.71 10.6,1.11 12.83,1.4 10.2,11.87 -9.9,39.55 -31.97,82.31 -54.9,115.75"
       style="fill:#74d0bf;fill-opacity:1;fill-rule:nonzero;stroke:none"
       transform="matrix(0.03527778,0,0,-0.03527778,-35.06576,208.11678)"
       clip-path="url(#clipPath1276)" />
    <path
       id="path1277"
       d="m 4649.13,1514.97 c 8.06,28.01 22.85,55.57 38.18,80.19 5.75,9.23 13.85,19.28 24.74,18.86 10.19,-0.43 17.34,-9.86 22.75,-18.5 5.37,-8.53 10.58,-17.34 12.92,-27.11 2.37,-9.83 1.46,-20.84 -4.62,-28.89 -5.49,-7.25 -14.33,-11.06 -22.84,-14.28 -13.34,-4.97 -26.99,-9.14 -40.89,-12.49 -6.92,-1.66 -13.89,-3.08 -20.92,-4.34 -8.16,-1.45 -11.99,-2.62 -9.32,6.56 z m -13.59,-7.44 c -1.76,-10.65 0.48,-10.75 11.14,-10.99 9.98,-0.23 20.05,0.08 30.03,0.71 20.05,1.29 39.93,4.19 59.5,8.65 15.89,3.65 32.33,8.74 43.72,20.46 14.12,14.46 17.75,36.79 13.73,56.57 -4.05,19.78 -14.8,37.55 -26.38,54.05 -8.21,11.73 -18.11,23.85 -32.1,26.95 -11.43,2.49 -23.56,-1.83 -32.73,-9.11 -9.17,-7.3 -15.75,-17.28 -21.56,-27.47 -20.15,-35.18 -38.68,-79.59 -45.35,-119.82"
       style="fill:#74d0bf;fill-opacity:1;fill-rule:nonzero;stroke:none"
       transform="matrix(0.03527778,0,0,-0.03527778,-35.06576,208.11678)"
       clip-path="url(#clipPath1278)" />
    <path
       id="path1279"
       d="m 4717.24,1255.05 c -13.61,4.8 -22.49,20.33 -19.72,34.5 2.78,14.17 16.86,25.2 31.29,24.5 14.42,-0.69 27.37,-13.04 28.77,-27.4 -8.21,16.58 8.28,40.52 26.49,43.77 18.21,3.26 37,-14.23 35.05,-32.63 -2.79,16.5 14.01,33.01 30.69,34.32 16.68,1.31 32.76,-10.45 39.16,-25.91 6.4,-15.46 4.13,-33.57 -3.29,-48.57 -54.01,0.5 -117.49,-20.52 -168.44,-2.58"
       style="fill:#ffffff;fill-opacity:1;fill-rule:nonzero;stroke:none"
       transform="matrix(0.03527778,0,0,-0.03527778,-35.06576,208.11678)"
       clip-path="url(#clipPath1280)" />
    <path
       id="path1281"
       d="m 3403.39,1257.91 c -10.46,11.68 -7.13,31.76 4.83,41.9 11.95,10.14 29.81,11.16 44.47,5.58 14.65,-5.58 26.49,-16.8 36.24,-29.07 1.76,14.96 12.52,25.95 27.43,28.09 14.9,2.15 30.7,-6.75 36.6,-20.6 9.21,12.29 31.29,12.07 43.38,2.6 12.09,-9.47 14.28,-29.21 4.56,-41.11 -65.87,6.1 -131.37,12.35 -197.51,12.61"
       style="fill:#ffffff;fill-opacity:1;fill-rule:nonzero;stroke:none"
       transform="matrix(0.03527778,0,0,-0.03527778,-35.06576,208.11678)"
       clip-path="url(#clipPath1282)" />
    <path
       id="path1283"
       d="m 3995.35,1244.53 c -9.29,-0.21 -18.98,1.15 -26.67,6.36 -7.69,5.2 -12.82,14.97 -10.41,23.93 2.32,8.63 10.92,14.42 19.72,15.96 8.79,1.54 17.79,-0.37 26.44,-2.56 5.18,7.08 10.69,11.7 17.96,16.61 7.27,4.91 16.38,7.65 24.93,5.7 8.55,-1.97 16.06,-9.36 16.52,-18.11 1.98,5.58 8.29,10.63 14.2,10.94 5.92,0.31 11.86,-3.21 14.42,-8.56 4.53,7.84 10.42,14.91 17.18,20.91 6.76,6.01 16.13,9.82 24.92,7.72 11.28,-2.71 18.52,-14.47 19.7,-26.01 1.18,-11.54 -2.4,-22.99 -5.93,-34.03 -51.3,-7.91 -101.1,-17.75 -152.98,-18.86"
       style="fill:#ffffff;fill-opacity:1;fill-rule:nonzero;stroke:none"
       transform="matrix(0.03527778,0,0,-0.03527778,-35.06576,208.11678)"
       clip-path="url(#clipPath1284)" />
  </g>
</svg>
